<?xml version="1.0" encoding="UTF-8" standalone="no"?>
<!-- Created with Inkscape (http://www.inkscape.org/) -->

<svg
   version="1.1"
   id="svg2"
   width="500"
   height="388"
   viewBox="0 0 500 388"
   sodipodi:docname="IAE_com_com.eps"
   xmlns:inkscape="http://www.inkscape.org/namespaces/inkscape"
   xmlns:sodipodi="http://sodipodi.sourceforge.net/DTD/sodipodi-0.dtd"
   xmlns="http://www.w3.org/2000/svg"
   xmlns:svg="http://www.w3.org/2000/svg">
  <defs
     id="defs6" />
  <sodipodi:namedview
     id="namedview4"
     pagecolor="#ffffff"
     bordercolor="#000000"
     borderopacity="0.25"
     inkscape:showpageshadow="2"
     inkscape:pageopacity="0.0"
     inkscape:pagecheckerboard="0"
     inkscape:deskcolor="#d1d1d1" />
  <g
     id="g8"
     inkscape:groupmode="layer"
     inkscape:label="ink_ext_XXXXXX"
     transform="matrix(1.3333333,0,0,-1.3333333,0,388)">
    <g
       id="g10"
       transform="scale(0.1)">
      <path
         d="M -60,-50 H 4140 V 3100 H -60 Z"
         style="fill:#ffffff;fill-opacity:1;fill-rule:nonzero;stroke:none"
         id="path12" />
      <path
         d="M -60,-50 H 4140 V 3100 H -60 Z"
         style="fill:#ffffff;fill-opacity:1;fill-rule:nonzero;stroke:none"
         id="path14" />
      <path
         d="M 486,580 H 3744 V 2866 H 486 Z"
         style="fill:#ffffff;fill-opacity:1;fill-rule:nonzero;stroke:none"
         id="path16" />
      <path
         d="M 775.723,580 V 2866"
         style="fill:none;stroke:#dfdfdf;stroke-width:4.998;stroke-linecap:butt;stroke-linejoin:round;stroke-miterlimit:10;stroke-dasharray:none;stroke-opacity:1"
         id="path18" />
      <path
         d="M 1158.37,580 V 2866"
         style="fill:none;stroke:#dfdfdf;stroke-width:4.998;stroke-linecap:butt;stroke-linejoin:round;stroke-miterlimit:10;stroke-dasharray:none;stroke-opacity:1"
         id="path20" />
      <path
         d="M 1541.02,580 V 2866"
         style="fill:none;stroke:#dfdfdf;stroke-width:4.998;stroke-linecap:butt;stroke-linejoin:round;stroke-miterlimit:10;stroke-dasharray:none;stroke-opacity:1"
         id="path22" />
      <path
         d="M 1923.67,580 V 2866"
         style="fill:none;stroke:#dfdfdf;stroke-width:4.998;stroke-linecap:butt;stroke-linejoin:round;stroke-miterlimit:10;stroke-dasharray:none;stroke-opacity:1"
         id="path24" />
      <path
         d="M 2306.33,580 V 2866"
         style="fill:none;stroke:#dfdfdf;stroke-width:4.998;stroke-linecap:butt;stroke-linejoin:round;stroke-miterlimit:10;stroke-dasharray:none;stroke-opacity:1"
         id="path26" />
      <path
         d="M 2688.98,580 V 2866"
         style="fill:none;stroke:#dfdfdf;stroke-width:4.998;stroke-linecap:butt;stroke-linejoin:round;stroke-miterlimit:10;stroke-dasharray:none;stroke-opacity:1"
         id="path28" />
      <path
         d="M 3071.63,580 V 2866"
         style="fill:none;stroke:#dfdfdf;stroke-width:4.998;stroke-linecap:butt;stroke-linejoin:round;stroke-miterlimit:10;stroke-dasharray:none;stroke-opacity:1"
         id="path30" />
      <path
         d="M 3454.28,580 V 2866"
         style="fill:none;stroke:#dfdfdf;stroke-width:4.998;stroke-linecap:butt;stroke-linejoin:round;stroke-miterlimit:10;stroke-dasharray:none;stroke-opacity:1"
         id="path32" />
      <path
         d="M 3744,580 H 486"
         style="fill:none;stroke:#dfdfdf;stroke-width:4.998;stroke-linecap:butt;stroke-linejoin:round;stroke-miterlimit:10;stroke-dasharray:none;stroke-opacity:1"
         id="path34" />
      <path
         d="M 3744,808.602 H 486"
         style="fill:none;stroke:#dfdfdf;stroke-width:4.998;stroke-linecap:butt;stroke-linejoin:round;stroke-miterlimit:10;stroke-dasharray:none;stroke-opacity:1"
         id="path36" />
      <path
         d="M 3744,1037.2 H 486"
         style="fill:none;stroke:#dfdfdf;stroke-width:4.998;stroke-linecap:butt;stroke-linejoin:round;stroke-miterlimit:10;stroke-dasharray:none;stroke-opacity:1"
         id="path38" />
      <path
         d="M 3744,1265.8 H 486"
         style="fill:none;stroke:#dfdfdf;stroke-width:4.998;stroke-linecap:butt;stroke-linejoin:round;stroke-miterlimit:10;stroke-dasharray:none;stroke-opacity:1"
         id="path40" />
      <path
         d="M 3744,1494.4 H 486"
         style="fill:none;stroke:#dfdfdf;stroke-width:4.998;stroke-linecap:butt;stroke-linejoin:round;stroke-miterlimit:10;stroke-dasharray:none;stroke-opacity:1"
         id="path42" />
      <path
         d="M 3744,1723 H 486"
         style="fill:none;stroke:#dfdfdf;stroke-width:4.998;stroke-linecap:butt;stroke-linejoin:round;stroke-miterlimit:10;stroke-dasharray:none;stroke-opacity:1"
         id="path44" />
      <path
         d="M 3744,1951.6 H 486"
         style="fill:none;stroke:#dfdfdf;stroke-width:4.998;stroke-linecap:butt;stroke-linejoin:round;stroke-miterlimit:10;stroke-dasharray:none;stroke-opacity:1"
         id="path46" />
      <path
         d="M 3744,2180.2 H 486"
         style="fill:none;stroke:#dfdfdf;stroke-width:4.998;stroke-linecap:butt;stroke-linejoin:round;stroke-miterlimit:10;stroke-dasharray:none;stroke-opacity:1"
         id="path48" />
      <path
         d="M 3744,2408.8 H 486"
         style="fill:none;stroke:#dfdfdf;stroke-width:4.998;stroke-linecap:butt;stroke-linejoin:round;stroke-miterlimit:10;stroke-dasharray:none;stroke-opacity:1"
         id="path50" />
      <path
         d="M 3744,2637.4 H 486"
         style="fill:none;stroke:#dfdfdf;stroke-width:4.998;stroke-linecap:butt;stroke-linejoin:round;stroke-miterlimit:10;stroke-dasharray:none;stroke-opacity:1"
         id="path52" />
      <path
         d="M 3744,2866 H 486"
         style="fill:none;stroke:#dfdfdf;stroke-width:4.998;stroke-linecap:butt;stroke-linejoin:round;stroke-miterlimit:10;stroke-dasharray:none;stroke-opacity:1"
         id="path54" />
      <path
         d="M 486,580 H 3744"
         style="fill:none;stroke:#262626;stroke-width:4.998;stroke-linecap:butt;stroke-linejoin:round;stroke-miterlimit:10;stroke-dasharray:none;stroke-opacity:1"
         id="path56" />
      <path
         d="M 764.789,868.5 H 677.3281 V 580 h 87.4609 z m 382.651,167.57 h -87.4648 V 580 h 87.4648 z m 382.65,-92.566 h -87.4609 V 580 h 87.4609 z m 382.65,-62.012 h -87.4609 V 580 h 87.4609 z m 382.65,153.618 h -87.4609 V 580.005 h 87.4609 z m 382.66,385.08 h -87.4688 V 579.999 h 87.4688 z m 382.65,-316.03 h -87.4609 V 580 H 3060.7 Z m 382.65,363.3 h -87.4648 V 579.999 h 87.4648 z"
         style="fill:#0072bd;fill-opacity:1;fill-rule:nonzero;stroke:none"
         id="path58" />
      <path
         d="m 677.328,580 h 87.4609 V 868.5 H 677.328 Z"
         style="fill:none;stroke:#000000;stroke-width:4.998;stroke-linecap:butt;stroke-linejoin:miter;stroke-miterlimit:10;stroke-dasharray:none;stroke-opacity:1"
         id="path60" />
      <path
         d="m 1059.98,580 h 87.4648 v 456.07 H 1059.98 Z"
         style="fill:none;stroke:#000000;stroke-width:4.998;stroke-linecap:butt;stroke-linejoin:miter;stroke-miterlimit:10;stroke-dasharray:none;stroke-opacity:1"
         id="path62" />
      <path
         d="m 1442.63,580 h 87.4609 V 943.504 H 1442.63 Z"
         style="fill:none;stroke:#000000;stroke-width:4.998;stroke-linecap:butt;stroke-linejoin:miter;stroke-miterlimit:10;stroke-dasharray:none;stroke-opacity:1"
         id="path64" />
      <path
         d="m 1825.28,580 h 87.4609 V 881.492 H 1825.28 Z"
         style="fill:none;stroke:#000000;stroke-width:4.998;stroke-linecap:butt;stroke-linejoin:miter;stroke-miterlimit:10;stroke-dasharray:none;stroke-opacity:1"
         id="path66" />
      <path
         d="m 2207.93,580 h 87.4609 v 455.105 H 2207.93 Z"
         style="fill:none;stroke:#000000;stroke-width:4.998;stroke-linecap:butt;stroke-linejoin:miter;stroke-miterlimit:10;stroke-dasharray:none;stroke-opacity:1"
         id="path68" />
      <path
         d="m 2590.58,580 h 87.4688 v 840.191 H 2590.58 Z"
         style="fill:none;stroke:#000000;stroke-width:4.998;stroke-linecap:butt;stroke-linejoin:miter;stroke-miterlimit:10;stroke-dasharray:none;stroke-opacity:1"
         id="path70" />
      <path
         d="m 2973.23,580 h 87.4609 v 524.16 H 2973.23 Z"
         style="fill:none;stroke:#000000;stroke-width:4.998;stroke-linecap:butt;stroke-linejoin:miter;stroke-miterlimit:10;stroke-dasharray:none;stroke-opacity:1"
         id="path72" />
      <path
         d="m 3355.88,580 h 87.4648 v 887.461 H 3355.88 Z"
         style="fill:none;stroke:#000000;stroke-width:4.998;stroke-linecap:butt;stroke-linejoin:miter;stroke-miterlimit:10;stroke-dasharray:none;stroke-opacity:1"
         id="path74" />
      <path
         d="M 874.117,981.395 H 786.6522 V 580 H 874.117 Z M 1256.77,2318.28 h -87.4609 V 580 h 87.4609 z m 382.65,-1428.8 h -87.4688 V 580 h 87.4688 z m 382.65,1233.79 h -87.4609 V 580 h 87.4609 z m 382.65,-859.56 h -87.4609 V 579.999 h 87.4609 z m 382.65,1413.89 h -87.4609 V 580 h 87.4609 z m 382.65,-1303.11 h -87.4648 V 580.002 h 87.4648 z m 382.65,1346.99 h -87.4609 V 580 h 87.4609 z"
         style="fill:#d95319;fill-opacity:1;fill-rule:nonzero;stroke:none"
         id="path76" />
      <path
         d="m 786.652,580 h 87.4648 V 981.395 H 786.652 Z"
         style="fill:none;stroke:#000000;stroke-width:4.998;stroke-linecap:butt;stroke-linejoin:miter;stroke-miterlimit:10;stroke-dasharray:none;stroke-opacity:1"
         id="path78" />
      <path
         d="m 1169.3,580 h 87.4609 V 2318.28 H 1169.3 Z"
         style="fill:none;stroke:#000000;stroke-width:4.998;stroke-linecap:butt;stroke-linejoin:miter;stroke-miterlimit:10;stroke-dasharray:none;stroke-opacity:1"
         id="path80" />
      <path
         d="m 1551.95,580 h 87.4688 V 889.48 H 1551.95 Z"
         style="fill:none;stroke:#000000;stroke-width:4.998;stroke-linecap:butt;stroke-linejoin:miter;stroke-miterlimit:10;stroke-dasharray:none;stroke-opacity:1"
         id="path82" />
      <path
         d="m 1934.61,580 h 87.4609 V 2123.27 H 1934.61 Z"
         style="fill:none;stroke:#000000;stroke-width:4.998;stroke-linecap:butt;stroke-linejoin:miter;stroke-miterlimit:10;stroke-dasharray:none;stroke-opacity:1"
         id="path84" />
      <path
         d="m 2317.26,580 h 87.4609 v 683.711 H 2317.26 Z"
         style="fill:none;stroke:#000000;stroke-width:4.998;stroke-linecap:butt;stroke-linejoin:miter;stroke-miterlimit:10;stroke-dasharray:none;stroke-opacity:1"
         id="path86" />
      <path
         d="m 2699.91,580 h 87.4609 V 2677.6 H 2699.91 Z"
         style="fill:none;stroke:#000000;stroke-width:4.998;stroke-linecap:butt;stroke-linejoin:miter;stroke-miterlimit:10;stroke-dasharray:none;stroke-opacity:1"
         id="path88" />
      <path
         d="m 3082.56,580 h 87.4648 v 794.488 H 3082.56 Z"
         style="fill:none;stroke:#000000;stroke-width:4.998;stroke-linecap:butt;stroke-linejoin:miter;stroke-miterlimit:10;stroke-dasharray:none;stroke-opacity:1"
         id="path90" />
      <path
         d="m 3465.21,580 h 87.4609 V 2721.48 H 3465.21 Z"
         style="fill:none;stroke:#000000;stroke-width:4.998;stroke-linecap:butt;stroke-linejoin:miter;stroke-miterlimit:10;stroke-dasharray:none;stroke-opacity:1"
         id="path92" />
      <path
         d="M 486,580 H 3744"
         style="fill:none;stroke:#262626;stroke-width:4.998;stroke-linecap:square;stroke-linejoin:round;stroke-miterlimit:10;stroke-dasharray:none;stroke-opacity:1"
         id="path94" />
      <path
         d="M 486,2866 H 3744"
         style="fill:none;stroke:#262626;stroke-width:4.998;stroke-linecap:square;stroke-linejoin:round;stroke-miterlimit:10;stroke-dasharray:none;stroke-opacity:1"
         id="path96" />
      <path
         d="m 775.723,580 v 32.582"
         style="fill:none;stroke:#262626;stroke-width:4.998;stroke-linecap:square;stroke-linejoin:round;stroke-miterlimit:10;stroke-dasharray:none;stroke-opacity:1"
         id="path98" />
      <path
         d="m 1158.37,580 v 32.582"
         style="fill:none;stroke:#262626;stroke-width:4.998;stroke-linecap:square;stroke-linejoin:round;stroke-miterlimit:10;stroke-dasharray:none;stroke-opacity:1"
         id="path100" />
      <path
         d="m 1541.02,580 v 32.582"
         style="fill:none;stroke:#262626;stroke-width:4.998;stroke-linecap:square;stroke-linejoin:round;stroke-miterlimit:10;stroke-dasharray:none;stroke-opacity:1"
         id="path102" />
      <path
         d="m 1923.67,580 v 32.582"
         style="fill:none;stroke:#262626;stroke-width:4.998;stroke-linecap:square;stroke-linejoin:round;stroke-miterlimit:10;stroke-dasharray:none;stroke-opacity:1"
         id="path104" />
      <path
         d="m 2306.33,580 v 32.582"
         style="fill:none;stroke:#262626;stroke-width:4.998;stroke-linecap:square;stroke-linejoin:round;stroke-miterlimit:10;stroke-dasharray:none;stroke-opacity:1"
         id="path106" />
      <path
         d="m 2688.98,580 v 32.582"
         style="fill:none;stroke:#262626;stroke-width:4.998;stroke-linecap:square;stroke-linejoin:round;stroke-miterlimit:10;stroke-dasharray:none;stroke-opacity:1"
         id="path108" />
      <path
         d="m 3071.63,580 v 32.582"
         style="fill:none;stroke:#262626;stroke-width:4.998;stroke-linecap:square;stroke-linejoin:round;stroke-miterlimit:10;stroke-dasharray:none;stroke-opacity:1"
         id="path110" />
      <path
         d="m 3454.28,580 v 32.582"
         style="fill:none;stroke:#262626;stroke-width:4.998;stroke-linecap:square;stroke-linejoin:round;stroke-miterlimit:10;stroke-dasharray:none;stroke-opacity:1"
         id="path112" />
      <path
         d="m 775.723,2866 v -32.58"
         style="fill:none;stroke:#262626;stroke-width:4.998;stroke-linecap:square;stroke-linejoin:round;stroke-miterlimit:10;stroke-dasharray:none;stroke-opacity:1"
         id="path114" />
      <path
         d="m 1158.37,2866 v -32.58"
         style="fill:none;stroke:#262626;stroke-width:4.998;stroke-linecap:square;stroke-linejoin:round;stroke-miterlimit:10;stroke-dasharray:none;stroke-opacity:1"
         id="path116" />
      <path
         d="m 1541.02,2866 v -32.58"
         style="fill:none;stroke:#262626;stroke-width:4.998;stroke-linecap:square;stroke-linejoin:round;stroke-miterlimit:10;stroke-dasharray:none;stroke-opacity:1"
         id="path118" />
      <path
         d="m 1923.67,2866 v -32.58"
         style="fill:none;stroke:#262626;stroke-width:4.998;stroke-linecap:square;stroke-linejoin:round;stroke-miterlimit:10;stroke-dasharray:none;stroke-opacity:1"
         id="path120" />
      <path
         d="m 2306.33,2866 v -32.58"
         style="fill:none;stroke:#262626;stroke-width:4.998;stroke-linecap:square;stroke-linejoin:round;stroke-miterlimit:10;stroke-dasharray:none;stroke-opacity:1"
         id="path122" />
      <path
         d="m 2688.98,2866 v -32.58"
         style="fill:none;stroke:#262626;stroke-width:4.998;stroke-linecap:square;stroke-linejoin:round;stroke-miterlimit:10;stroke-dasharray:none;stroke-opacity:1"
         id="path124" />
      <path
         d="m 3071.63,2866 v -32.58"
         style="fill:none;stroke:#262626;stroke-width:4.998;stroke-linecap:square;stroke-linejoin:round;stroke-miterlimit:10;stroke-dasharray:none;stroke-opacity:1"
         id="path126" />
      <path
         d="m 3454.28,2866 v -32.58"
         style="fill:none;stroke:#262626;stroke-width:4.998;stroke-linecap:square;stroke-linejoin:round;stroke-miterlimit:10;stroke-dasharray:none;stroke-opacity:1"
         id="path128" />
      <g
         id="g130"
         transform="scale(10)">
        <text
           xml:space="preserve"
           transform="matrix(0.866027,0.499997,0.499997,-0.866027,34.3477,17.2664)"
           style="font-variant:normal;font-weight:normal;font-size:10.0003px;font-family:Helvetica;-inkscape-font-specification:Helvetica;writing-mode:lr-tb;fill:#262626;fill-opacity:1;fill-rule:nonzero;stroke:none"
           id="text148"><tspan
             x="0 7.2202158 13.06039 18.620556 24.180723 29.740889 38.071136 43.631302 50.301502"
             y="0"
             sodipodi:role="line"
             id="tspan132">D+135M2Pc</tspan><tspan
             x="33.138397 40.358612 46.198788 51.758953 57.319118 62.879284 71.209534 76.769699 83.439896"
             y="19.132298"
             sodipodi:role="line"
             id="tspan134">D+135M8Pc</tspan><tspan
             x="66.277092 73.497307 79.337486 84.897652 90.457817 96.017982 104.34823 109.90839 116.5786"
             y="38.264793"
             sodipodi:role="line"
             id="tspan136">D+135M2Ps</tspan><tspan
             x="99.415787 106.636 112.47618 118.03635 123.59651 129.15668 137.48692 143.04709 149.71729"
             y="57.397293"
             sodipodi:role="line"
             id="tspan138">D+135M8Ps</tspan><tspan
             x="135.55418 142.7744 146.10449 151.66467 157.22484 162.785 171.11525 176.67542 183.34561"
             y="76.529594"
             sodipodi:role="line"
             id="tspan140">D-135M2Pc</tspan><tspan
             x="168.69289 175.9131 179.24319 184.80336 190.36353 195.92369 204.25394 209.8141 216.48431"
             y="95.662086"
             sodipodi:role="line"
             id="tspan142">D-135M8Pc</tspan><tspan
             x="201.83157 209.05179 212.3819 217.94206 223.50223 229.06239 237.39264 242.9528 249.623"
             y="114.79459"
             sodipodi:role="line"
             id="tspan144">D-135M2Ps</tspan><tspan
             x="234.96997 242.19019 245.52029 251.08046 256.64062 262.20078 270.53104 276.09119 282.76141"
             y="133.92688"
             sodipodi:role="line"
             id="tspan146">D-135M8Ps</tspan></text>
      </g>
      <path
         d="m 1955.49,24.8281 c 3.69,-4.6875 8.3,-8.3945 13.83,-11.1133 5.54,-2.7187 11.3,-4.07808 17.3,-4.07808 5,0 9.62,0.98438 13.87,2.95708 4.25,1.9687 7.99,4.7187 11.21,8.25 3.21,3.5273 5.67,7.5429 7.35,12.0429 1.69,4.5 2.54,9.2188 2.54,14.1563 0,0.8125 0.5,1.2187 1.5,1.2187 h 1.96 c 0.82,0 1.22,-0.5 1.22,-1.5 0,-5.6875 -1.07,-11.1562 -3.23,-16.4023 -2.16,-5.2539 -5.22,-9.8633 -9.18,-13.8321 -3.97,-3.9648 -8.52,-7.05855 -13.65,-9.28121 -5.12,-2.21875 -10.5,-3.32812 -16.12,-3.32812 -7.75,0 -15.08,1.5625 -21.98,4.69141 -6.91,3.12502 -12.95,7.41792 -18.1,12.88672 -5.16,5.4687 -9.17,11.7969 -12.05,18.9844 -2.87,7.1875 -4.31,14.6562 -4.31,22.4062 0,7.75 1.44,15.2031 4.31,22.3594 2.88,7.1562 6.89,13.4844 12.05,18.9839 5.15,5.5 11.19,9.782 18.1,12.848 6.9,3.059 14.23,4.59 21.98,4.59 5.56,0 10.87,-1.188 15.93,-3.559 5.07,-2.375 9.51,-5.754 13.32,-10.129 l 9.37,13.219 c 0.63,0.313 1,0.469 1.13,0.469 h 1.21 c 0.32,0 0.6,-0.125 0.85,-0.375 0.25,-0.25 0.37,-0.563 0.37,-0.934 V 76.5781 c 0,-0.9414 -0.4,-1.4101 -1.22,-1.4101 h -3 c -1,0 -1.5,0.4687 -1.5,1.4101 0,3.1211 -0.6,6.6055 -1.82,10.4492 -1.22,3.8438 -2.8,7.5 -4.74,10.9688 -1.94,3.4689 -4.15,6.5159 -6.65,9.1409 -6.07,5.937 -13.04,8.906 -20.91,8.906 -5.94,0 -11.64,-1.344 -17.11,-4.031 -5.46,-2.688 -10.08,-6.407 -13.83,-11.153 -3.94,-5.066 -6.67,-10.8317 -8.2,-17.2965 -1.53,-6.4687 -2.3,-13.3633 -2.3,-20.6758 0,-7.375 0.77,-14.2929 2.3,-20.7617 1.53,-6.4727 4.26,-12.2383 8.2,-17.2969"
         style="fill:#262626;fill-opacity:1;fill-rule:nonzero;stroke:none"
         id="path150" />
      <path
         d="m 2040.58,23.418 c 0,6.4375 2.53,11.6758 7.59,15.707 5.07,4.0273 11.15,6.8711 18.24,8.5273 7.09,1.6563 13.83,2.4844 20.21,2.4844 v 6.6563 c 0,3.0625 -0.69,6.0625 -2.07,9 -1.37,2.9375 -3.34,5.3437 -5.91,7.2187 -2.56,1.8789 -5.4,2.8164 -8.52,2.8164 -7.19,0 -12.66,-1.5937 -16.41,-4.7851 2.06,0 3.76,-0.7813 5.11,-2.3438 1.34,-1.5586 2.01,-3.3711 2.01,-5.4375 0,-2.1875 -0.76,-4.0469 -2.29,-5.5781 -1.54,-1.5313 -3.33,-2.2969 -5.4,-2.2969 -2.18,0 -4.04,0.7656 -5.57,2.2969 -1.53,1.5312 -2.3,3.3906 -2.3,5.5781 0,5.6875 2.58,9.9219 7.73,12.7031 5.16,2.7813 10.86,4.1719 17.12,4.1719 4.37,0 8.77,-0.9375 13.21,-2.8086 4.44,-1.8789 8.06,-4.5664 10.88,-8.0664 2.81,-3.5 4.21,-7.5625 4.21,-12.1836 V 20.6094 c 0,-2.1289 0.46,-4.0664 1.37,-5.8164 0.9,-1.75 2.29,-2.625 4.17,-2.625 1.81,0 3.15,0.8906 4.03,2.6758 0.87,1.7773 1.31,3.6992 1.31,5.7656 v 10.4023 h 4.69 V 20.6094 c 0,-2.4414 -0.63,-4.7539 -1.87,-6.9414 -1.26,-2.1875 -2.96,-3.92191 -5.12,-5.20316 -2.15,-1.28125 -4.45,-1.92187 -6.88,-1.92187 -3.19,0 -5.93,1.21875 -8.21,3.65623 -2.28,2.4414 -3.58,5.3438 -3.89,8.7188 -2,-4.0625 -4.94,-7.2774 -8.81,-9.65628 -3.88,-2.375 -8.04,-3.5625 -12.47,-3.5625 -4.13,0 -8.19,0.59375 -12.19,1.78125 -4,1.1875 -7.33,3.09373 -9.98,5.71873 -2.66,2.625 -3.99,6.0313 -3.99,10.2188 z m 13.13,0 c 0,-3.8125 1.4,-7.0157 4.21,-9.6055 2.81,-2.5977 6.1,-3.89453 9.85,-3.89453 3.5,0 6.67,0.87503 9.52,2.62503 2.84,1.75 5.1,4.125 6.79,7.125 1.69,3 2.54,6.1562 2.54,9.4687 v 16.875 c -4.88,0 -9.9,-0.8125 -15.05,-2.4336 -5.16,-1.6289 -9.43,-4.1445 -12.8,-7.5508 -3.38,-3.4062 -5.06,-7.6093 -5.06,-12.6093"
         style="fill:#262626;fill-opacity:1;fill-rule:nonzero;stroke:none"
         id="path152" />
      <path
         d="M 2119.46,7.01172 V 33.4492 c 0,0.8125 0.5,1.2188 1.5,1.2188 h 1.97 c 0.62,0 1.03,-0.4063 1.21,-1.2188 3,-15.6875 10.29,-23.53123 21.84,-23.53123 5.13,0 9.41,1.15623 12.85,3.46873 3.44,2.3125 5.15,5.9063 5.15,10.7813 0,3.5 -1.34,6.4687 -4.02,8.9101 -2.69,2.4336 -5.88,4.1211 -9.57,5.0586 l -10.78,2.0625 c -3.68,0.8125 -7.01,2.0313 -9.98,3.6602 -2.97,1.625 -5.41,3.7969 -7.31,6.5156 -1.91,2.7148 -2.86,5.8867 -2.86,9.5117 0,4.75 1.26,8.6406 3.79,11.6758 2.54,3.0313 5.8,5.2188 9.8,6.5625 4,1.3398 8.31,2.0117 12.93,2.0117 5.57,0 10.38,-1.5 14.45,-4.5 l 4.68,4.0313 c 0,0.3125 0.28,0.4687 0.85,0.4687 h 1.12 c 0.31,0 0.61,-0.1562 0.89,-0.4687 0.28,-0.3125 0.42,-0.625 0.42,-0.9375 V 57.543 c 0,-1 -0.43,-1.5 -1.31,-1.5 h -1.97 c -0.93,0 -1.4,0.5 -1.4,1.5 0,5.625 -1.57,10.1562 -4.69,13.5937 -3.13,3.4375 -7.53,5.1563 -13.22,5.1563 -4.81,0 -9,-0.8867 -12.57,-2.668 -3.55,-1.7852 -5.34,-4.8633 -5.34,-9.2383 0,-3 1.29,-5.4687 3.84,-7.4062 2.57,-1.9375 5.57,-3.3399 9,-4.2188 l 10.98,-1.9687 c 3.68,-0.875 7.12,-2.3125 10.31,-4.3125 3.19,-2 5.72,-4.5313 7.59,-7.5938 1.88,-3.0625 2.82,-6.5312 2.82,-10.4062 0,-3.875 -0.68,-7.25 -2.02,-10.1211 -1.34,-2.875 -3.22,-5.2696 -5.62,-7.1758 -2.41,-1.90626 -5.25,-3.29297 -8.54,-4.17188 -3.28,-0.875 -6.7,-1.3125 -10.27,-1.3125 -6.74,0 -12.52,2.25 -17.34,6.74998 l -5.91,-6.37107 c 0,-0.25391 -0.27,-0.37891 -0.84,-0.37891 h -0.93 c -1,0 -1.5,0.4375 -1.5,1.3125"
         style="fill:#262626;fill-opacity:1;fill-rule:nonzero;stroke:none"
         id="path154" />
      <path
         d="m 2217.54,5.69922 c -6.56,0 -12.59,1.71875 -18.09,5.16018 -5.5,3.4336 -9.83,8.0429 -12.99,13.8242 -3.16,5.7852 -4.74,11.8945 -4.74,18.3281 0,6.3125 1.44,12.3125 4.32,18 2.87,5.6875 6.89,10.3008 12.04,13.8321 5.16,3.5273 10.89,5.2929 17.21,5.2929 4.94,0 9.23,-0.8437 12.89,-2.5273 3.66,-1.6875 6.67,-4.0039 9.04,-6.9414 2.38,-2.9375 4.17,-6.4063 5.4,-10.4063 1.22,-4 1.83,-8.4062 1.83,-13.2187 0,-1.4375 -0.57,-2.1563 -1.7,-2.1563 h -46.87 v -1.6875 c 0,-9 1.82,-16.7187 5.44,-23.1562 3.62,-6.4375 9.53,-9.6563 17.72,-9.6563 3.31,0 6.37,0.7344 9.18,2.2071 2.82,1.4687 5.27,3.5273 7.36,6.1835 2.1,2.6563 3.49,5.4844 4.17,8.4844 0.13,0.3789 0.34,0.7071 0.62,0.9844 0.27,0.2812 0.6,0.4219 0.98,0.4219 h 1.4 c 1.13,0 1.7,-0.6875 1.7,-2.0586 -1.5,-6.1289 -4.79,-11.1446 -9.85,-15.0469 -5.06,-3.91016 -10.75,-5.86328 -17.06,-5.86328 z M 2196.07,48.918 H 2233 c 0,4.0625 -0.56,8.1718 -1.68,12.3281 -1.12,4.1562 -3.02,7.625 -5.67,10.4062 -2.66,2.7813 -6.11,4.1758 -10.36,4.1758 -6.13,0 -10.86,-2.8593 -14.21,-8.582 -3.34,-5.7188 -5.01,-11.8281 -5.01,-18.3281"
         style="fill:#262626;fill-opacity:1;fill-rule:nonzero;stroke:none"
         id="path156" />
      <path
         d="M 2253.68,7.01172 V 33.4492 c 0,0.8125 0.5,1.2188 1.5,1.2188 h 1.97 c 0.62,0 1.03,-0.4063 1.22,-1.2188 3,-15.6875 10.28,-23.53123 21.84,-23.53123 5.13,0 9.41,1.15623 12.84,3.46873 3.44,2.3125 5.16,5.9063 5.16,10.7813 0,3.5 -1.34,6.4687 -4.03,8.9101 -2.69,2.4336 -5.88,4.1211 -9.56,5.0586 l -10.79,2.0625 c -3.69,0.8125 -7.01,2.0313 -9.98,3.6602 -2.97,1.625 -5.4,3.7969 -7.31,6.5156 -1.91,2.7148 -2.86,5.8867 -2.86,9.5117 0,4.75 1.27,8.6406 3.8,11.6758 2.52,3.0313 5.79,5.2188 9.79,6.5625 4,1.3398 8.31,2.0117 12.94,2.0117 5.56,0 10.37,-1.5 14.44,-4.5 l 4.68,4.0313 c 0,0.3125 0.29,0.4687 0.85,0.4687 h 1.12 c 0.31,0 0.61,-0.1562 0.9,-0.4687 0.28,-0.3125 0.42,-0.625 0.42,-0.9375 V 57.543 c 0,-1 -0.44,-1.5 -1.32,-1.5 h -1.97 c -0.93,0 -1.4,0.5 -1.4,1.5 0,5.625 -1.56,10.1562 -4.69,13.5937 -3.12,3.4375 -7.53,5.1563 -13.22,5.1563 -4.81,0 -9,-0.8867 -12.56,-2.668 -3.56,-1.7852 -5.34,-4.8633 -5.34,-9.2383 0,-3 1.28,-5.4687 3.84,-7.4062 2.56,-1.9375 5.56,-3.3399 9,-4.2188 l 10.97,-1.9687 c 3.69,-0.875 7.12,-2.3125 10.31,-4.3125 3.19,-2 5.72,-4.5313 7.59,-7.5938 1.88,-3.0625 2.82,-6.5312 2.82,-10.4062 0,-3.875 -0.67,-7.25 -2.02,-10.1211 -1.34,-2.875 -3.22,-5.2696 -5.62,-7.1758 -2.41,-1.90626 -5.25,-3.29297 -8.53,-4.17188 -3.28,-0.875 -6.71,-1.3125 -10.27,-1.3125 -6.75,0 -12.53,2.25 -17.34,6.74998 l -5.91,-6.37107 c 0,-0.25391 -0.28,-0.37891 -0.84,-0.37891 h -0.94 c -1,0 -1.5,0.4375 -1.5,1.3125"
         style="fill:#262626;fill-opacity:1;fill-rule:nonzero;stroke:none"
         id="path158" />
      <path
         d="M 486,580 V 2866"
         style="fill:none;stroke:#262626;stroke-width:4.998;stroke-linecap:square;stroke-linejoin:round;stroke-miterlimit:10;stroke-dasharray:none;stroke-opacity:1"
         id="path160" />
      <path
         d="M 3744,580 V 2866"
         style="fill:none;stroke:#262626;stroke-width:4.998;stroke-linecap:square;stroke-linejoin:round;stroke-miterlimit:10;stroke-dasharray:none;stroke-opacity:1"
         id="path162" />
      <path
         d="m 486,580 h 32.578"
         style="fill:none;stroke:#262626;stroke-width:4.998;stroke-linecap:square;stroke-linejoin:round;stroke-miterlimit:10;stroke-dasharray:none;stroke-opacity:1"
         id="path164" />
      <path
         d="m 486,808.602 h 32.578"
         style="fill:none;stroke:#262626;stroke-width:4.998;stroke-linecap:square;stroke-linejoin:round;stroke-miterlimit:10;stroke-dasharray:none;stroke-opacity:1"
         id="path166" />
      <path
         d="m 486,1037.2 h 32.578"
         style="fill:none;stroke:#262626;stroke-width:4.998;stroke-linecap:square;stroke-linejoin:round;stroke-miterlimit:10;stroke-dasharray:none;stroke-opacity:1"
         id="path168" />
      <path
         d="m 486,1265.8 h 32.578"
         style="fill:none;stroke:#262626;stroke-width:4.998;stroke-linecap:square;stroke-linejoin:round;stroke-miterlimit:10;stroke-dasharray:none;stroke-opacity:1"
         id="path170" />
      <path
         d="m 486,1494.4 h 32.578"
         style="fill:none;stroke:#262626;stroke-width:4.998;stroke-linecap:square;stroke-linejoin:round;stroke-miterlimit:10;stroke-dasharray:none;stroke-opacity:1"
         id="path172" />
      <path
         d="m 486,1723 h 32.578"
         style="fill:none;stroke:#262626;stroke-width:4.998;stroke-linecap:square;stroke-linejoin:round;stroke-miterlimit:10;stroke-dasharray:none;stroke-opacity:1"
         id="path174" />
      <path
         d="m 486,1951.6 h 32.578"
         style="fill:none;stroke:#262626;stroke-width:4.998;stroke-linecap:square;stroke-linejoin:round;stroke-miterlimit:10;stroke-dasharray:none;stroke-opacity:1"
         id="path176" />
      <path
         d="m 486,2180.2 h 32.578"
         style="fill:none;stroke:#262626;stroke-width:4.998;stroke-linecap:square;stroke-linejoin:round;stroke-miterlimit:10;stroke-dasharray:none;stroke-opacity:1"
         id="path178" />
      <path
         d="m 486,2408.8 h 32.578"
         style="fill:none;stroke:#262626;stroke-width:4.998;stroke-linecap:square;stroke-linejoin:round;stroke-miterlimit:10;stroke-dasharray:none;stroke-opacity:1"
         id="path180" />
      <path
         d="m 486,2637.4 h 32.578"
         style="fill:none;stroke:#262626;stroke-width:4.998;stroke-linecap:square;stroke-linejoin:round;stroke-miterlimit:10;stroke-dasharray:none;stroke-opacity:1"
         id="path182" />
      <path
         d="m 486,2866 h 32.578"
         style="fill:none;stroke:#262626;stroke-width:4.998;stroke-linecap:square;stroke-linejoin:round;stroke-miterlimit:10;stroke-dasharray:none;stroke-opacity:1"
         id="path184" />
      <path
         d="m 3744,580 h -32.58"
         style="fill:none;stroke:#262626;stroke-width:4.998;stroke-linecap:square;stroke-linejoin:round;stroke-miterlimit:10;stroke-dasharray:none;stroke-opacity:1"
         id="path186" />
      <path
         d="m 3744,808.602 h -32.58"
         style="fill:none;stroke:#262626;stroke-width:4.998;stroke-linecap:square;stroke-linejoin:round;stroke-miterlimit:10;stroke-dasharray:none;stroke-opacity:1"
         id="path188" />
      <path
         d="m 3744,1037.2 h -32.58"
         style="fill:none;stroke:#262626;stroke-width:4.998;stroke-linecap:square;stroke-linejoin:round;stroke-miterlimit:10;stroke-dasharray:none;stroke-opacity:1"
         id="path190" />
      <path
         d="m 3744,1265.8 h -32.58"
         style="fill:none;stroke:#262626;stroke-width:4.998;stroke-linecap:square;stroke-linejoin:round;stroke-miterlimit:10;stroke-dasharray:none;stroke-opacity:1"
         id="path192" />
      <path
         d="m 3744,1494.4 h -32.58"
         style="fill:none;stroke:#262626;stroke-width:4.998;stroke-linecap:square;stroke-linejoin:round;stroke-miterlimit:10;stroke-dasharray:none;stroke-opacity:1"
         id="path194" />
      <path
         d="m 3744,1723 h -32.58"
         style="fill:none;stroke:#262626;stroke-width:4.998;stroke-linecap:square;stroke-linejoin:round;stroke-miterlimit:10;stroke-dasharray:none;stroke-opacity:1"
         id="path196" />
      <path
         d="m 3744,1951.6 h -32.58"
         style="fill:none;stroke:#262626;stroke-width:4.998;stroke-linecap:square;stroke-linejoin:round;stroke-miterlimit:10;stroke-dasharray:none;stroke-opacity:1"
         id="path198" />
      <path
         d="m 3744,2180.2 h -32.58"
         style="fill:none;stroke:#262626;stroke-width:4.998;stroke-linecap:square;stroke-linejoin:round;stroke-miterlimit:10;stroke-dasharray:none;stroke-opacity:1"
         id="path200" />
      <path
         d="m 3744,2408.8 h -32.58"
         style="fill:none;stroke:#262626;stroke-width:4.998;stroke-linecap:square;stroke-linejoin:round;stroke-miterlimit:10;stroke-dasharray:none;stroke-opacity:1"
         id="path202" />
      <path
         d="m 3744,2637.4 h -32.58"
         style="fill:none;stroke:#262626;stroke-width:4.998;stroke-linecap:square;stroke-linejoin:round;stroke-miterlimit:10;stroke-dasharray:none;stroke-opacity:1"
         id="path204" />
      <path
         d="m 3744,2866 h -32.58"
         style="fill:none;stroke:#262626;stroke-width:4.998;stroke-linecap:square;stroke-linejoin:round;stroke-miterlimit:10;stroke-dasharray:none;stroke-opacity:1"
         id="path206" />
      <g
         id="g208"
         transform="scale(10)">
        <text
           xml:space="preserve"
           transform="matrix(1,0,0,-1,38.6,54.1)"
           style="font-variant:normal;font-weight:normal;font-size:10.0002px;font-family:Helvetica;-inkscape-font-specification:Helvetica;writing-mode:lr-tb;fill:#262626;fill-opacity:1;fill-rule:nonzero;stroke:none"
           id="text232"><tspan
             x="0"
             y="0"
             id="tspan210">0</tspan><tspan
             x="-10.8 -5.2398887 0.32022241"
             y="-22.860201"
             sodipodi:role="line"
             id="tspan212">100</tspan><tspan
             x="-10.8 -5.2398887 0.32022241"
             y="-45.720001"
             sodipodi:role="line"
             id="tspan214">200</tspan><tspan
             x="-10.8 -5.2398887 0.32022241"
             y="-68.5802"
             sodipodi:role="line"
             id="tspan216">300</tspan><tspan
             x="-10.8 -5.2398887 0.32022241"
             y="-91.440002"
             sodipodi:role="line"
             id="tspan218">400</tspan><tspan
             x="-10.8 -5.2398887 0.32022241"
             y="-114.3002"
             sodipodi:role="line"
             id="tspan220">500</tspan><tspan
             x="-10.8 -5.2398887 0.32022241"
             y="-137.1604"
             sodipodi:role="line"
             id="tspan222">600</tspan><tspan
             x="-10.8 -5.2398887 0.32022241"
             y="-160.0202"
             sodipodi:role="line"
             id="tspan224">700</tspan><tspan
             x="-10.8 -5.2398887 0.32022241"
             y="-182.8804"
             sodipodi:role="line"
             id="tspan226">800</tspan><tspan
             x="-10.8 -5.2398887 0.32022241"
             y="-205.7402"
             sodipodi:role="line"
             id="tspan228">900</tspan><tspan
             x="-16.799999 -11.239889 -5.6797776 -0.1196664"
             y="-228.6004"
             sodipodi:role="line"
             id="tspan230">1000</tspan></text>
      </g>
      <path
         d="m 130.398,1472.78 h -5.714 c 0,11.62 -1.723,17.43 -5.161,17.43 H 30.5547 c -3.4375,0 -5.1563,-5.81 -5.1563,-17.43 h -5.625 v 50.06 h 5.625 c 0,-11.69 1.7188,-17.54 5.1563,-17.54 h 88.9683 c 3.438,0 5.161,5.85 5.161,17.54 h 5.714 v -50.06"
         style="fill:#262626;fill-opacity:1;fill-rule:nonzero;stroke:none"
         id="path234" />
      <path
         d="m 130.398,1531.58 h -5.714 c 0,9.63 -3.192,15.56 -9.567,17.82 l -98.9022,33.93 c -1.1875,0.31 -1.7812,1.19 -1.7812,2.63 v 2.06 c 0,1.44 0.5937,2.32 1.7812,2.63 l 103.3082,35.53 c 2.317,1 3.754,2.91 4.313,5.72 0.562,2.81 0.848,6.34 0.848,10.59 h 5.714 v -45.19 h -5.714 c 0,8.94 -1.442,13.41 -4.317,13.41 h -0.844 l -25.3082,-8.72 v -39.38 l 20.9022,-7.21 c 0.375,-0.13 0.938,-0.19 1.688,-0.19 2.687,0 4.672,1.28 5.953,3.84 1.281,2.56 1.926,5.31 1.926,8.25 h 5.714 z m -41.8121,33 v 35.44 L 36.9336,1582.3 Z"
         style="fill:#262626;fill-opacity:1;fill-rule:nonzero;stroke:none"
         id="path236" />
      <path
         d="m 130.398,1651.3 h -5.714 c 0,11.13 -1.723,16.69 -5.161,16.69 H 30.5547 c -3.4375,0 -5.1563,-5.56 -5.1563,-16.69 h -5.625 v 91.6 l 37.0313,4.5 v -4.6 c -9.3125,-1.19 -16.0781,-2.83 -20.2969,-4.92 -4.2187,-2.09 -7.125,-5.42 -8.7187,-9.98 -1.5938,-4.57 -2.3907,-11.44 -2.3907,-20.63 v -15.94 c 0,-1.93 0.0782,-3.45 0.2344,-4.54 0.1563,-1.1 0.625,-1.99 1.4063,-2.68 0.7812,-0.68 1.9531,-1.03 3.5156,-1.03 h 39.5625 v 12 c 0,5.5 -0.4531,9.6 -1.3594,12.28 -0.9062,2.69 -2.668,4.55 -5.293,5.59 -2.6289,1.03 -6.7226,1.54 -12.2812,1.54 v 4.78 h 43.5 v -4.78 c -5.4414,0 -9.4883,-0.51 -12.1445,-1.54 -2.6563,-1.04 -4.4375,-2.9 -5.3399,-5.59 -0.9101,-2.68 -1.3633,-6.78 -1.3633,-12.28 v -12 h 43.6871 c 2.375,0 3.829,0.67 4.36,2.02 0.531,1.34 0.801,3.42 0.801,6.23 v 17.16 c 0,7.5 -0.594,13.56 -1.786,18.19 -1.187,4.62 -3.156,8.22 -5.902,10.78 -2.754,2.56 -6.332,4.53 -10.738,5.9 -4.406,1.38 -10.5158,2.69 -18.3244,3.94 v 4.6 l 42.4644,-6.75 v -93.85"
         style="fill:#262626;fill-opacity:1;fill-rule:nonzero;stroke:none"
         id="path238" />
      <path
         d="M 170.898,1774.35 H 8.89844 v 22.12 h 6.46876 v -15.65 H 164.434 v 15.65 h 6.464 v -22.12"
         style="fill:#262626;fill-opacity:1;fill-rule:nonzero;stroke:none"
         id="path240" />
      <path
         d="m 130.398,1804.45 h -5.714 c 0,3.75 -0.286,6.8 -0.848,9.14 -0.559,2.34 -1.996,3.52 -4.313,3.52 H 75.3672 c -2.9336,0 -5.0469,-0.43 -6.3281,-1.27 -1.2813,-0.84 -2.0625,-2.09 -2.3399,-3.75 -0.2851,-1.66 -0.4258,-4.2 -0.4258,-7.64 h -5.7187 l -1.7813,23.53 h 15.8438 c -4.625,2.19 -8.418,5.41 -11.3867,9.66 -2.9727,4.25 -4.4571,8.87 -4.4571,13.87 0,12.44 5.0625,19.72 15.1914,21.85 -4.5,2.18 -8.1562,5.35 -10.9687,9.51 -2.8164,4.16 -4.2227,8.74 -4.2227,13.74 0,4.87 0.7969,8.98 2.3907,12.32 1.5937,3.35 4.0156,5.87 7.2695,7.55 3.2461,1.69 7.3086,2.53 12.1836,2.53 h 38.9058 c 2.317,0 3.754,1.2 4.313,3.61 0.562,2.41 0.848,5.43 0.848,9.05 h 5.714 v -37.03 h -5.714 c 0,3.68 -0.286,6.72 -0.848,9.09 -0.559,2.38 -1.996,3.56 -4.313,3.56 H 81.0859 c -5.4375,0 -9.8086,-0.77 -13.1211,-2.3 -3.3125,-1.53 -4.9687,-4.67 -4.9687,-9.42 0,-6.25 2.5,-11.4 7.5,-15.46 5,-4.07 10.7187,-6.1 17.1523,-6.1 h 31.8746 c 2.317,0 3.754,1.19 4.313,3.56 0.562,2.38 0.848,5.41 0.848,9.1 h 5.714 v -37.13 h -5.714 c 0,3.69 -0.286,6.72 -0.848,9.1 -0.559,2.37 -1.996,3.56 -4.313,3.56 H 81.0859 c -5.2461,0 -9.5742,-0.77 -12.9843,-2.3 -3.4024,-1.53 -5.1055,-4.64 -5.1055,-9.33 0,-6.31 2.5,-11.48 7.5,-15.51 5,-4.04 10.7187,-6.05 17.1523,-6.05 h 31.8746 c 2.317,0 3.754,1.19 4.313,3.56 0.562,2.38 0.848,5.38 0.848,9 h 5.714 v -37.12"
         style="fill:#262626;fill-opacity:1;fill-rule:nonzero;stroke:none"
         id="path242" />
      <path
         d="m 170.898,1936.57 h -6.464 v 15.75 H 15.3672 v -15.75 H 8.89844 v 22.21 H 170.898 v -22.21"
         style="fill:#262626;fill-opacity:1;fill-rule:nonzero;stroke:none"
         id="path244" />
      <path
         d="m 564,2464 h 1284 v 324 H 564 Z"
         style="fill:#ffffff;fill-opacity:1;fill-rule:nonzero;stroke:none"
         id="path246" />
      <path
         d="m 944.105,2684.44 c 2.75,-3.5 6.168,-6.25 10.262,-8.25 4.094,-2 8.36,-3 12.797,-3 3.688,0 7.109,0.73 10.266,2.2 3.156,1.47 5.922,3.51 8.297,6.14 2.378,2.63 4.191,5.6 5.437,8.91 1.254,3.31 1.879,6.81 1.879,10.5 0,0.62 0.375,0.94 1.121,0.94 h 1.41 c 0.625,0 0.938,-0.41 0.938,-1.22 0,-4.19 -0.801,-8.22 -2.395,-12.1 -1.594,-3.88 -3.855,-7.3 -6.793,-10.27 -2.941,-2.97 -6.316,-5.26 -10.129,-6.88 -3.812,-1.63 -7.777,-2.44 -11.902,-2.44 -5.754,0 -11.191,1.16 -16.316,3.47 -5.122,2.31 -9.59,5.5 -13.403,9.56 -3.812,4.06 -6.781,8.75 -8.91,14.06 -2.125,5.31 -3.187,10.84 -3.187,16.6 0,5.68 1.062,11.18 3.187,16.5 2.129,5.31 5.098,10 8.91,14.06 3.813,4.06 8.281,7.24 13.403,9.56 5.125,2.31 10.562,3.47 16.316,3.47 4.125,0 8.062,-0.89 11.812,-2.68 3.75,-1.77 7.028,-4.29 9.84,-7.54 l 6.938,9.85 c 0.5,0.24 0.781,0.37 0.844,0.37 h 0.847 c 0.25,0 0.465,-0.11 0.653,-0.33 0.191,-0.22 0.285,-0.45 0.285,-0.7 v -32.44 c 0,-0.69 -0.313,-1.03 -0.938,-1.03 h -2.16 c -0.746,0 -1.121,0.34 -1.121,1.03 0,2.31 -0.453,4.89 -1.363,7.73 -0.903,2.85 -2.075,5.55 -3.516,8.12 -1.437,2.56 -3.09,4.84 -4.969,6.84 -4.5,4.37 -9.656,6.56 -15.468,6.56 -4.375,0 -8.594,-1 -12.653,-3 -4.062,-2 -7.469,-4.75 -10.219,-8.25 -2.937,-3.75 -4.972,-8.03 -6.093,-12.84 -1.125,-4.81 -1.688,-9.91 -1.688,-15.28 0,-5.45 0.563,-10.57 1.688,-15.38 1.121,-4.82 3.156,-9.09 6.093,-12.84"
         style="fill:#000000;fill-opacity:1;fill-rule:nonzero;stroke:none"
         id="path248" />
      <path
         d="m 1033.39,2670.28 c -4.81,0 -9.26,1.22 -13.35,3.66 -4.1,2.44 -7.33,5.7 -9.7,9.79 -2.38,4.1 -3.57,8.58 -3.57,13.46 0,3.62 0.66,7.14 1.97,10.54 1.31,3.41 3.19,6.46 5.63,9.15 2.43,2.68 5.26,4.78 8.48,6.28 3.22,1.5 6.73,2.25 10.54,2.25 4.94,0 9.43,-1.3 13.46,-3.9 4.03,-2.59 7.21,-6.07 9.56,-10.45 2.34,-4.38 3.52,-9 3.52,-13.87 0,-4.81 -1.19,-9.28 -3.56,-13.41 -2.38,-4.13 -5.62,-7.4 -9.71,-9.84 -4.09,-2.44 -8.52,-3.66 -13.27,-3.66 z m 0,3.47 c 6.44,0 10.72,2.32 12.85,6.98 2.12,4.66 3.19,10.58 3.19,17.77 0,4 -0.21,7.32 -0.61,9.98 -0.41,2.66 -1.36,5.05 -2.86,7.18 -0.88,1.31 -2,2.47 -3.37,3.47 -1.38,1 -2.85,1.76 -4.41,2.29 -1.57,0.53 -3.16,0.8 -4.79,0.8 -2.5,0 -4.87,-0.56 -7.12,-1.69 -2.25,-1.13 -4.13,-2.75 -5.63,-4.87 -1.43,-2.26 -2.35,-4.74 -2.76,-7.46 -0.41,-2.72 -0.61,-5.95 -0.61,-9.7 0,-4.5 0.39,-8.54 1.17,-12.09 0.78,-3.57 2.35,-6.57 4.69,-9 2.34,-2.45 5.76,-3.66 10.26,-3.66"
         style="fill:#000000;fill-opacity:1;fill-rule:nonzero;stroke:none"
         id="path250" />
      <path
         d="m 1066.96,2671.59 v 4.22 c 2.75,0 5,0.22 6.75,0.66 1.75,0.44 2.63,1.5 2.63,3.19 v 32.72 c 0,2.12 -0.32,3.66 -0.95,4.63 -0.62,0.97 -1.54,1.57 -2.76,1.78 -1.22,0.23 -3.11,0.34 -5.67,0.34 v 4.21 l 17.43,1.32 v -11.72 c 1.57,3.44 3.93,6.25 7.08,8.44 3.16,2.18 6.58,3.28 10.27,3.28 9.25,0 14.69,-3.75 16.31,-11.25 1.56,3.31 3.89,6.01 6.99,8.1 3.09,2.1 6.48,3.15 10.17,3.15 3.62,0 6.67,-0.6 9.14,-1.78 2.47,-1.19 4.33,-2.99 5.58,-5.4 1.25,-2.4 1.87,-5.42 1.87,-9.04 v -28.78 c 0,-1.69 0.89,-2.75 2.67,-3.19 1.78,-0.44 4.02,-0.66 6.71,-0.66 v -4.22 h -27.47 v 4.22 c 2.75,0 5,0.22 6.75,0.66 1.75,0.44 2.63,1.5 2.63,3.19 v 28.4 c 0,4.07 -0.57,7.33 -1.7,9.8 -1.12,2.46 -3.43,3.7 -6.93,3.7 -4.63,0 -8.44,-1.86 -11.44,-5.58 -3,-3.71 -4.5,-7.95 -4.5,-12.7 v -23.62 c 0,-1.69 0.87,-2.75 2.62,-3.19 1.75,-0.44 4,-0.66 6.75,-0.66 v -4.22 h -27.55 v 4.22 c 2.74,0 4.99,0.22 6.75,0.66 1.74,0.44 2.62,1.5 2.62,3.19 v 28.4 c 0,3.94 -0.57,7.17 -1.69,9.7 -1.13,2.53 -3.43,3.8 -6.93,3.8 -4.63,0 -8.45,-1.86 -11.45,-5.58 -3,-3.71 -4.5,-7.95 -4.5,-12.7 v -23.62 c 0,-1.69 0.88,-2.75 2.63,-3.19 1.75,-0.44 3.97,-0.66 6.66,-0.66 v -4.22 h -27.47"
         style="fill:#000000;fill-opacity:1;fill-rule:nonzero;stroke:none"
         id="path252" />
      <path
         d="m 1166.49,2648.34 v 4.13 c 2.75,0 5,0.23 6.75,0.7 1.75,0.47 2.62,1.52 2.62,3.14 v 57.85 c 0,2.18 -0.78,3.56 -2.34,4.12 -1.56,0.56 -3.91,0.85 -7.03,0.85 v 4.21 l 17.81,1.32 v -7.5 c 2.19,2.43 4.74,4.29 7.64,5.57 2.91,1.29 5.99,1.93 9.24,1.93 4.75,0 9.02,-1.28 12.79,-3.85 3.78,-2.56 6.74,-5.92 8.86,-10.08 2.13,-4.16 3.19,-8.58 3.19,-13.26 0,-4.82 -1.17,-9.32 -3.51,-13.5 -2.35,-4.19 -5.57,-7.52 -9.66,-9.99 -4.1,-2.46 -8.58,-3.7 -13.46,-3.7 -5.81,0 -10.75,2.34 -14.81,7.03 v -21 c 0,-1.62 0.89,-2.67 2.68,-3.14 1.78,-0.47 4.01,-0.7 6.7,-0.7 v -4.13 z m 18.09,34.88 c 1.44,-2.82 3.41,-5.16 5.91,-7.03 2.5,-1.88 5.22,-2.81 8.15,-2.81 2.82,0 5.29,0.75 7.41,2.25 2.13,1.5 3.91,3.5 5.34,6 1.45,2.5 2.5,5.12 3.19,7.87 0.69,2.75 1.03,5.41 1.03,7.97 0,3.25 -0.57,6.73 -1.73,10.45 -1.16,3.72 -2.92,6.86 -5.3,9.42 -2.37,2.57 -5.21,3.85 -8.53,3.85 -3.25,0 -6.23,-0.83 -8.95,-2.49 -2.72,-1.65 -4.89,-3.92 -6.52,-6.79 v -28.69"
         style="fill:#000000;fill-opacity:1;fill-rule:nonzero;stroke:none"
         id="path254" />
      <path
         d="m 1263.3,2670.28 c -4.87,0 -9.35,1.28 -13.45,3.85 -4.09,2.56 -7.3,5.96 -9.61,10.21 -2.31,4.25 -3.47,8.79 -3.47,13.6 0,4.69 1.06,9.14 3.19,13.35 2.13,4.23 5.09,7.63 8.9,10.22 3.82,2.6 8.07,3.9 12.75,3.9 3.63,0 6.8,-0.63 9.52,-1.88 2.72,-1.25 4.97,-2.97 6.75,-5.15 1.78,-2.19 3.11,-4.77 3.98,-7.74 0.88,-2.97 1.32,-6.2 1.32,-9.7 0,-1.06 -0.41,-1.6 -1.22,-1.6 h -34.69 v -1.31 c 0,-6.63 1.33,-12.33 3.98,-17.11 2.66,-4.78 7.02,-7.17 13.08,-7.17 2.44,0 4.71,0.54 6.8,1.64 2.09,1.09 3.92,2.63 5.48,4.59 1.57,1.97 2.6,4.05 3.1,6.24 0.13,0.31 0.3,0.58 0.52,0.79 0.21,0.22 0.45,0.33 0.7,0.33 h 1.03 c 0.81,0 1.22,-0.53 1.22,-1.59 -1.13,-4.5 -3.56,-8.21 -7.32,-11.11 -3.74,-2.91 -7.93,-4.36 -12.56,-4.36 z m -15.94,32.06 h 27.38 c 0,3 -0.42,6.04 -1.26,9.1 -0.85,3.06 -2.26,5.62 -4.23,7.69 -1.96,2.06 -4.51,3.09 -7.64,3.09 -4.56,0 -8.07,-2.13 -10.54,-6.38 -2.47,-4.25 -3.71,-8.75 -3.71,-13.5"
         style="fill:#000000;fill-opacity:1;fill-rule:nonzero;stroke:none"
         id="path256" />
      <path
         d="m 1290.29,2671.59 v 4.22 c 2.75,0 5,0.22 6.75,0.66 1.75,0.44 2.63,1.5 2.63,3.19 v 32.72 c 0,2.12 -0.31,3.66 -0.94,4.63 -0.62,0.97 -1.55,1.57 -2.77,1.78 -1.21,0.23 -3.1,0.34 -5.67,0.34 v 4.21 l 17.44,1.32 v -11.72 c 1.56,3.44 3.92,6.25 7.07,8.44 3.16,2.18 6.59,3.28 10.27,3.28 5.56,0 9.75,-1.33 12.56,-3.99 2.82,-2.65 4.22,-6.73 4.22,-12.23 v -28.78 c 0,-1.69 0.88,-2.75 2.63,-3.19 1.75,-0.44 4,-0.66 6.75,-0.66 v -4.22 h -27.56 v 4.22 c 2.75,0 5,0.22 6.75,0.66 1.75,0.44 2.62,1.5 2.62,3.19 v 28.4 c 0,3.94 -0.56,7.17 -1.69,9.7 -1.12,2.53 -3.43,3.8 -6.93,3.8 -4.63,0 -8.44,-1.86 -11.44,-5.58 -3,-3.71 -4.5,-7.95 -4.5,-12.7 v -23.62 c 0,-1.69 0.88,-2.75 2.62,-3.19 1.76,-0.44 3.97,-0.66 6.66,-0.66 v -4.22 h -27.47"
         style="fill:#000000;fill-opacity:1;fill-rule:nonzero;stroke:none"
         id="path258" />
      <path
         d="m 1357.43,2671.22 v 19.59 c 0,0.62 0.34,0.94 1.03,0.94 h 1.4 c 0.5,0 0.82,-0.32 0.94,-0.94 2.25,-11.62 7.66,-17.43 16.22,-17.43 3.82,0 6.99,0.85 9.52,2.57 2.53,1.72 3.79,4.39 3.79,8.02 0,2.56 -0.98,4.74 -2.95,6.56 -1.97,1.81 -4.33,3.06 -7.08,3.75 l -8.06,1.6 c -2.69,0.56 -5.12,1.45 -7.31,2.66 -2.19,1.23 -3.99,2.84 -5.39,4.84 -1.41,2 -2.11,4.34 -2.11,7.03 0,3.5 0.92,6.37 2.77,8.62 1.84,2.25 4.25,3.88 7.21,4.88 2.97,1 6.17,1.5 9.61,1.5 4.12,0 7.69,-1.1 10.69,-3.28 l 3.47,3 c 0,0.18 0.19,0.28 0.56,0.28 h 0.94 c 0.25,0 0.46,-0.11 0.65,-0.34 0.19,-0.21 0.28,-0.45 0.28,-0.69 v -15.66 c 0,-0.75 -0.31,-1.13 -0.93,-1.13 h -1.5 c -0.69,0 -1.04,0.38 -1.04,1.13 0,4.18 -1.15,7.54 -3.46,10.07 -2.31,2.53 -5.56,3.8 -9.75,3.8 -3.63,0 -6.75,-0.67 -9.38,-2.02 -2.62,-1.34 -3.94,-3.63 -3.94,-6.88 0,-2.19 0.94,-4 2.82,-5.44 1.87,-1.44 4.09,-2.47 6.65,-3.09 l 8.16,-1.5 c 2.75,-0.63 5.3,-1.69 7.64,-3.19 2.34,-1.5 4.22,-3.38 5.63,-5.63 1.4,-2.25 2.1,-4.81 2.1,-7.68 0,-2.88 -0.5,-5.38 -1.5,-7.5 -1,-2.13 -2.39,-3.89 -4.16,-5.3 -1.79,-1.41 -3.9,-2.44 -6.34,-3.1 -2.43,-0.65 -4.97,-0.98 -7.59,-0.98 -5,0 -9.28,1.65 -12.84,4.97 l -4.41,-4.69 c 0,-0.19 -0.22,-0.28 -0.66,-0.28 h -0.65 c -0.69,0 -1.03,0.31 -1.03,0.94"
         style="fill:#000000;fill-opacity:1;fill-rule:nonzero;stroke:none"
         id="path260" />
      <path
         d="m 1405.51,2683.41 c 0,4.74 1.88,8.62 5.62,11.62 3.76,3 8.26,5.11 13.5,6.33 5.26,1.22 10.26,1.83 15,1.83 v 4.87 c 0,2.31 -0.5,4.56 -1.5,6.75 -1,2.19 -2.46,3.97 -4.4,5.35 -1.94,1.37 -4.07,2.06 -6.38,2.06 -5.31,0 -9.34,-1.19 -12.09,-3.56 1.5,0 2.75,-0.58 3.75,-1.74 1,-1.15 1.5,-2.48 1.5,-3.98 0,-1.63 -0.56,-3.01 -1.69,-4.13 -1.12,-1.12 -2.46,-1.68 -4.03,-1.68 -1.62,0 -3,0.56 -4.12,1.68 -1.13,1.12 -1.69,2.5 -1.69,4.13 0,4.19 1.92,7.31 5.77,9.37 3.84,2.07 8.04,3.1 12.6,3.1 3.26,0 6.52,-0.71 9.8,-2.12 3.28,-1.4 5.97,-3.38 8.06,-5.95 2.09,-2.56 3.14,-5.56 3.14,-9 v -27 c 0,-1.56 0.33,-3 0.99,-4.31 0.65,-1.32 1.7,-1.97 3.14,-1.97 1.31,0 2.3,0.65 2.95,1.97 0.66,1.31 0.99,2.75 0.99,4.31 v 7.69 h 3.46 v -7.69 c 0,-1.81 -0.46,-3.53 -1.4,-5.15 -0.94,-1.63 -2.19,-2.93 -3.75,-3.9 -1.56,-0.97 -3.28,-1.45 -5.16,-1.45 -2.31,0 -4.32,0.93 -6.04,2.77 -1.72,1.84 -2.67,4.02 -2.86,6.52 -1.44,-3 -3.61,-5.4 -6.52,-7.18 -2.9,-1.78 -5.98,-2.67 -9.23,-2.67 -3.07,0 -6.08,0.43 -9.05,1.31 -2.97,0.88 -5.44,2.29 -7.41,4.22 -1.96,1.94 -2.95,4.47 -2.95,7.6 z m 9.75,0 c 0,-2.82 1.03,-5.19 3.09,-7.13 2.07,-1.94 4.51,-2.9 7.32,-2.9 2.62,0 4.98,0.65 7.08,1.96 2.09,1.31 3.76,3.08 5.01,5.3 1.25,2.22 1.87,4.55 1.87,6.99 v 12.46 c -3.62,0 -7.34,-0.59 -11.15,-1.78 -3.81,-1.19 -6.97,-3.04 -9.47,-5.58 -2.5,-2.53 -3.75,-5.64 -3.75,-9.32"
         style="fill:#000000;fill-opacity:1;fill-rule:nonzero;stroke:none"
         id="path262" />
      <path
         d="m 1473.01,2686.03 v 33.1 h -10.03 v 3.09 c 5.25,0 9.11,2.44 11.58,7.31 2.47,4.87 3.7,10.19 3.7,15.94 h 3.47 v -22.13 h 16.87 v -4.21 h -16.87 v -32.91 c 0,-3.32 0.55,-6.22 1.64,-8.72 1.09,-2.5 3.11,-3.75 6.05,-3.75 2.69,0 4.64,1.32 5.86,3.98 1.22,2.66 1.82,5.49 1.82,8.49 v 7.12 h 3.47 v -7.31 c 0,-2.5 -0.45,-4.97 -1.36,-7.4 -0.91,-2.44 -2.26,-4.44 -4.08,-6 -1.81,-1.57 -4,-2.35 -6.56,-2.35 -4.81,0 -8.61,1.43 -11.39,4.31 -2.78,2.88 -4.17,6.69 -4.17,11.44"
         style="fill:#000000;fill-opacity:1;fill-rule:nonzero;stroke:none"
         id="path264" />
      <path
         d="m 1511.05,2671.59 v 4.22 c 2.75,0 5,0.22 6.75,0.66 1.75,0.44 2.63,1.5 2.63,3.19 v 32.72 c 0,3.06 -0.59,4.95 -1.78,5.66 -1.19,0.73 -3.53,1.09 -7.03,1.09 v 4.21 l 17.25,1.32 v -45 c 0,-1.69 0.76,-2.75 2.29,-3.19 1.53,-0.44 3.58,-0.66 6.14,-0.66 v -4.22 z m 5.16,73.69 c 0,1.75 0.65,3.28 1.97,4.6 1.31,1.31 2.84,1.96 4.59,1.96 1.12,0 2.22,-0.28 3.28,-0.84 1.07,-0.56 1.88,-1.37 2.44,-2.44 0.56,-1.06 0.85,-2.15 0.85,-3.28 0,-1.75 -0.66,-3.28 -1.97,-4.59 -1.32,-1.31 -2.85,-1.97 -4.6,-1.97 -1.75,0 -3.28,0.66 -4.59,1.97 -1.32,1.31 -1.97,2.84 -1.97,4.59"
         style="fill:#000000;fill-opacity:1;fill-rule:nonzero;stroke:none"
         id="path266" />
      <path
         d="m 1570.73,2670.28 c -4.81,0 -9.27,1.22 -13.36,3.66 -4.09,2.44 -7.33,5.7 -9.71,9.79 -2.37,4.1 -3.55,8.58 -3.55,13.46 0,3.62 0.65,7.14 1.96,10.54 1.32,3.41 3.19,6.46 5.63,9.15 2.44,2.68 5.26,4.78 8.48,6.28 3.22,1.5 6.74,2.25 10.55,2.25 4.94,0 9.42,-1.3 13.45,-3.9 4.03,-2.59 7.22,-6.07 9.57,-10.45 2.34,-4.38 3.51,-9 3.51,-13.87 0,-4.81 -1.19,-9.28 -3.56,-13.41 -2.38,-4.13 -5.61,-7.4 -9.7,-9.84 -4.1,-2.44 -8.52,-3.66 -13.27,-3.66 z m 0,3.47 c 6.44,0 10.72,2.32 12.84,6.98 2.13,4.66 3.19,10.58 3.19,17.77 0,4 -0.2,7.32 -0.6,9.98 -0.41,2.66 -1.37,5.05 -2.87,7.18 -0.87,1.31 -2,2.47 -3.38,3.47 -1.37,1 -2.84,1.76 -4.4,2.29 -1.56,0.53 -3.16,0.8 -4.78,0.8 -2.5,0 -4.87,-0.56 -7.12,-1.69 -2.25,-1.13 -4.13,-2.75 -5.63,-4.87 -1.44,-2.26 -2.36,-4.74 -2.77,-7.46 -0.4,-2.72 -0.6,-5.95 -0.6,-9.7 0,-4.5 0.39,-8.54 1.17,-12.09 0.77,-3.57 2.34,-6.57 4.68,-9 2.34,-2.45 5.77,-3.66 10.27,-3.66"
         style="fill:#000000;fill-opacity:1;fill-rule:nonzero;stroke:none"
         id="path268" />
      <path
         d="m 1604.29,2671.59 v 4.22 c 2.75,0 5,0.22 6.75,0.66 1.75,0.44 2.63,1.5 2.63,3.19 v 32.72 c 0,2.12 -0.31,3.66 -0.94,4.63 -0.62,0.97 -1.55,1.57 -2.77,1.78 -1.21,0.23 -3.1,0.34 -5.67,0.34 v 4.21 l 17.44,1.32 v -11.72 c 1.56,3.44 3.92,6.25 7.08,8.44 3.15,2.18 6.58,3.28 10.26,3.28 5.57,0 9.76,-1.33 12.57,-3.99 2.81,-2.65 4.22,-6.73 4.22,-12.23 v -28.78 c 0,-1.69 0.87,-2.75 2.62,-3.19 1.75,-0.44 4,-0.66 6.75,-0.66 v -4.22 h -27.56 v 4.22 c 2.75,0 5,0.22 6.75,0.66 1.75,0.44 2.62,1.5 2.62,3.19 v 28.4 c 0,3.94 -0.56,7.17 -1.68,9.7 -1.13,2.53 -3.44,3.8 -6.94,3.8 -4.63,0 -8.44,-1.86 -11.44,-5.58 -3,-3.71 -4.5,-7.95 -4.5,-12.7 v -23.62 c 0,-1.69 0.88,-2.75 2.63,-3.19 1.75,-0.44 3.96,-0.66 6.65,-0.66 v -4.22 h -27.47"
         style="fill:#000000;fill-opacity:1;fill-rule:nonzero;stroke:none"
         id="path270" />
      <path
         d="m 1677.52,2678.25 c 0,1.75 0.66,3.28 1.97,4.59 1.31,1.31 2.85,1.97 4.6,1.97 1.12,0 2.2,-0.29 3.23,-0.89 1.03,-0.6 1.84,-1.42 2.44,-2.48 0.59,-1.06 0.88,-2.13 0.88,-3.19 0,-1.75 -0.64,-3.3 -1.92,-4.64 -1.27,-1.34 -2.82,-2.02 -4.63,-2.02 -1.75,0 -3.29,0.68 -4.6,2.02 -1.31,1.34 -1.97,2.89 -1.97,4.64 z m 0,38.44 c 0,1.12 0.28,2.2 0.85,3.23 0.56,1.03 1.35,1.86 2.39,2.49 1.03,0.62 2.14,0.93 3.33,0.93 1.12,0 2.2,-0.31 3.23,-0.93 1.03,-0.63 1.84,-1.46 2.44,-2.49 0.59,-1.03 0.88,-2.11 0.88,-3.23 0,-1.75 -0.62,-3.29 -1.87,-4.6 -1.25,-1.31 -2.81,-1.96 -4.68,-1.96 -1.82,0 -3.36,0.65 -4.65,1.96 -1.28,1.31 -1.92,2.85 -1.92,4.6"
         style="fill:#000000;fill-opacity:1;fill-rule:nonzero;stroke:none"
         id="path272" />
      <path
         d="m 1783.41,2671.59 -17.53,44.07 c -0.75,1.5 -1.91,2.45 -3.47,2.85 -1.56,0.41 -3.6,0.62 -6.1,0.62 v 4.21 h 25.22 v -4.21 c -4.5,0 -6.75,-0.97 -6.75,-2.91 0,-0.32 0.06,-0.54 0.19,-0.66 l 13.41,-33.84 12.18,30.56 c 0.19,0.63 0.29,1.25 0.29,1.88 0,1.55 -0.56,2.77 -1.69,3.65 -1.13,0.88 -2.47,1.32 -4.03,1.32 v 4.21 H 1815 v -4.21 c -2.44,0 -4.59,-0.57 -6.47,-1.69 -1.87,-1.13 -3.31,-2.82 -4.31,-5.06 l -16.12,-40.79 c -0.31,-0.88 -0.97,-1.31 -1.97,-1.31 h -0.85 c -1,0 -1.62,0.43 -1.87,1.31"
         style="fill:#000000;fill-opacity:1;fill-rule:nonzero;stroke:none"
         id="path274" />
      <path
         d="m 594.02,2646.02 h 300.195 v 108.758 H 594.02 Z"
         style="fill:#0072bd;fill-opacity:1;fill-rule:nonzero;stroke:none"
         id="path276" />
      <path
         d="m 594.02,2646.02 h 300.195 v 108.758 H 594.02 Z"
         style="fill:none;stroke:#000000;stroke-width:4.998;stroke-linecap:butt;stroke-linejoin:miter;stroke-miterlimit:10;stroke-dasharray:none;stroke-opacity:1"
         id="path278" />
      <path
         d="m 944.105,2535.66 c 2.75,-3.5 6.168,-6.25 10.262,-8.25 4.094,-2 8.36,-3 12.797,-3 3.688,0 7.109,0.73 10.266,2.2 3.156,1.46 5.922,3.51 8.297,6.14 2.378,2.62 4.191,5.59 5.437,8.91 1.254,3.3 1.879,6.8 1.879,10.5 0,0.62 0.375,0.93 1.121,0.93 h 1.41 c 0.625,0 0.938,-0.41 0.938,-1.22 0,-4.19 -0.801,-8.22 -2.395,-12.09 -1.594,-3.88 -3.855,-7.3 -6.793,-10.27 -2.941,-2.97 -6.316,-5.26 -10.129,-6.89 -3.812,-1.62 -7.777,-2.43 -11.902,-2.43 -5.754,0 -11.191,1.15 -16.316,3.47 -5.122,2.3 -9.59,5.49 -13.403,9.55 -3.812,4.07 -6.781,8.75 -8.91,14.07 -2.125,5.31 -3.187,10.84 -3.187,16.59 0,5.69 1.062,11.19 3.187,16.5 2.129,5.31 5.098,10 8.91,14.07 3.813,4.06 8.281,7.24 13.403,9.56 5.125,2.3 10.562,3.46 16.316,3.46 4.125,0 8.062,-0.89 11.812,-2.67 3.75,-1.78 7.028,-4.29 9.84,-7.54 l 6.938,9.84 c 0.5,0.25 0.781,0.37 0.844,0.37 h 0.847 c 0.25,0 0.465,-0.1 0.653,-0.32 0.191,-0.22 0.285,-0.46 0.285,-0.7 V 2574 c 0,-0.7 -0.313,-1.04 -0.938,-1.04 h -2.16 c -0.746,0 -1.121,0.34 -1.121,1.04 0,2.3 -0.453,4.88 -1.363,7.73 -0.903,2.84 -2.075,5.55 -3.516,8.11 -1.437,2.57 -3.09,4.85 -4.969,6.85 -4.5,4.37 -9.656,6.56 -15.468,6.56 -4.375,0 -8.594,-1 -12.653,-3 -4.062,-2 -7.469,-4.75 -10.219,-8.25 -2.937,-3.75 -4.972,-8.04 -6.093,-12.84 -1.125,-4.82 -1.688,-9.91 -1.688,-15.29 0,-5.44 0.563,-10.57 1.688,-15.37 1.121,-4.82 3.156,-9.1 6.093,-12.84"
         style="fill:#000000;fill-opacity:1;fill-rule:nonzero;stroke:none"
         id="path280" />
      <path
         d="m 1033.39,2521.5 c -4.81,0 -9.26,1.21 -13.35,3.66 -4.1,2.43 -7.33,5.7 -9.7,9.79 -2.38,4.09 -3.57,8.58 -3.57,13.46 0,3.62 0.66,7.13 1.97,10.54 1.31,3.41 3.19,6.45 5.63,9.14 2.43,2.69 5.26,4.78 8.48,6.28 3.22,1.5 6.73,2.25 10.54,2.25 4.94,0 9.43,-1.3 13.46,-3.89 4.03,-2.59 7.21,-6.08 9.56,-10.45 2.34,-4.38 3.52,-9 3.52,-13.87 0,-4.82 -1.19,-9.29 -3.56,-13.41 -2.38,-4.13 -5.62,-7.41 -9.71,-9.84 -4.09,-2.45 -8.52,-3.66 -13.27,-3.66 z m 0,3.46 c 6.44,0 10.72,2.33 12.85,6.99 2.12,4.66 3.19,10.58 3.19,17.76 0,4 -0.21,7.33 -0.61,9.99 -0.41,2.66 -1.36,5.05 -2.86,7.17 -0.88,1.31 -2,2.47 -3.37,3.47 -1.38,1 -2.85,1.77 -4.41,2.3 -1.57,0.53 -3.16,0.8 -4.79,0.8 -2.5,0 -4.87,-0.57 -7.12,-1.69 -2.25,-1.13 -4.13,-2.75 -5.63,-4.88 -1.43,-2.25 -2.35,-4.73 -2.76,-7.45 -0.41,-2.72 -0.61,-5.96 -0.61,-9.71 0,-4.5 0.39,-8.53 1.17,-12.09 0.78,-3.56 2.35,-6.56 4.69,-9 2.34,-2.44 5.76,-3.66 10.26,-3.66"
         style="fill:#000000;fill-opacity:1;fill-rule:nonzero;stroke:none"
         id="path282" />
      <path
         d="m 1066.96,2522.81 v 4.22 c 2.75,0 5,0.22 6.75,0.66 1.75,0.43 2.63,1.49 2.63,3.18 v 32.72 c 0,2.12 -0.32,3.67 -0.95,4.64 -0.62,0.97 -1.54,1.56 -2.76,1.78 -1.22,0.22 -3.11,0.33 -5.67,0.33 v 4.22 l 17.43,1.31 v -11.71 c 1.57,3.43 3.93,6.24 7.08,8.43 3.16,2.19 6.58,3.28 10.27,3.28 9.25,0 14.69,-3.75 16.31,-11.25 1.56,3.31 3.89,6.02 6.99,8.11 3.09,2.09 6.48,3.14 10.17,3.14 3.62,0 6.67,-0.59 9.14,-1.78 2.47,-1.19 4.33,-2.98 5.58,-5.39 1.25,-2.41 1.87,-5.42 1.87,-9.04 v -28.79 c 0,-1.69 0.89,-2.75 2.67,-3.18 1.78,-0.44 4.02,-0.66 6.71,-0.66 v -4.22 h -27.47 v 4.22 c 2.75,0 5,0.22 6.75,0.66 1.75,0.43 2.63,1.49 2.63,3.18 v 28.41 c 0,4.06 -0.57,7.33 -1.7,9.79 -1.12,2.47 -3.43,3.71 -6.93,3.71 -4.63,0 -8.44,-1.86 -11.44,-5.58 -3,-3.72 -4.5,-7.95 -4.5,-12.7 v -23.63 c 0,-1.69 0.87,-2.75 2.62,-3.18 1.75,-0.44 4,-0.66 6.75,-0.66 v -4.22 h -27.55 v 4.22 c 2.74,0 4.99,0.22 6.75,0.66 1.74,0.43 2.62,1.49 2.62,3.18 v 28.41 c 0,3.93 -0.57,7.17 -1.69,9.7 -1.13,2.53 -3.43,3.8 -6.93,3.8 -4.63,0 -8.45,-1.86 -11.45,-5.58 -3,-3.72 -4.5,-7.95 -4.5,-12.7 v -23.63 c 0,-1.69 0.88,-2.75 2.63,-3.18 1.75,-0.44 3.97,-0.66 6.66,-0.66 v -4.22 h -27.47"
         style="fill:#000000;fill-opacity:1;fill-rule:nonzero;stroke:none"
         id="path284" />
      <path
         d="m 1166.49,2499.56 v 4.13 c 2.75,0 5,0.23 6.75,0.7 1.75,0.47 2.62,1.51 2.62,3.14 v 57.84 c 0,2.19 -0.78,3.56 -2.34,4.13 -1.56,0.56 -3.91,0.84 -7.03,0.84 v 4.22 l 17.81,1.31 v -7.5 c 2.19,2.44 4.74,4.3 7.64,5.58 2.91,1.28 5.99,1.92 9.24,1.92 4.75,0 9.02,-1.28 12.79,-3.84 3.78,-2.57 6.74,-5.92 8.86,-10.08 2.13,-4.16 3.19,-8.58 3.19,-13.26 0,-4.82 -1.17,-9.32 -3.51,-13.5 -2.35,-4.19 -5.57,-7.52 -9.66,-9.99 -4.1,-2.47 -8.58,-3.7 -13.46,-3.7 -5.81,0 -10.75,2.34 -14.81,7.03 v -21 c 0,-1.63 0.89,-2.67 2.68,-3.14 1.78,-0.47 4.01,-0.7 6.7,-0.7 v -4.13 z m 18.09,34.88 c 1.44,-2.82 3.41,-5.16 5.91,-7.03 2.5,-1.88 5.22,-2.82 8.15,-2.82 2.82,0 5.29,0.75 7.41,2.25 2.13,1.5 3.91,3.5 5.34,6 1.45,2.5 2.5,5.12 3.19,7.87 0.69,2.75 1.03,5.41 1.03,7.98 0,3.24 -0.57,6.73 -1.73,10.45 -1.16,3.72 -2.92,6.86 -5.3,9.42 -2.37,2.56 -5.21,3.85 -8.53,3.85 -3.25,0 -6.23,-0.83 -8.95,-2.49 -2.72,-1.65 -4.89,-3.92 -6.52,-6.8 v -28.68"
         style="fill:#000000;fill-opacity:1;fill-rule:nonzero;stroke:none"
         id="path286" />
      <path
         d="m 1263.3,2521.5 c -4.87,0 -9.35,1.28 -13.45,3.84 -4.09,2.57 -7.3,5.97 -9.61,10.22 -2.31,4.25 -3.47,8.78 -3.47,13.6 0,4.68 1.06,9.13 3.19,13.35 2.13,4.22 5.09,7.63 8.9,10.22 3.82,2.59 8.07,3.89 12.75,3.89 3.63,0 6.8,-0.62 9.52,-1.87 2.72,-1.25 4.97,-2.97 6.75,-5.16 1.78,-2.19 3.11,-4.77 3.98,-7.73 0.88,-2.97 1.32,-6.2 1.32,-9.7 0,-1.07 -0.41,-1.6 -1.22,-1.6 h -34.69 v -1.31 c 0,-6.63 1.33,-12.33 3.98,-17.11 2.66,-4.78 7.02,-7.18 13.08,-7.18 2.44,0 4.71,0.55 6.8,1.65 2.09,1.09 3.92,2.62 5.48,4.59 1.57,1.97 2.6,4.05 3.1,6.24 0.13,0.31 0.3,0.57 0.52,0.79 0.21,0.22 0.45,0.33 0.7,0.33 h 1.03 c 0.81,0 1.22,-0.53 1.22,-1.6 -1.13,-4.5 -3.56,-8.2 -7.32,-11.1 -3.74,-2.91 -7.93,-4.36 -12.56,-4.36 z m -15.94,32.06 h 27.38 c 0,3 -0.42,6.03 -1.26,9.1 -0.85,3.05 -2.26,5.62 -4.23,7.68 -1.96,2.07 -4.51,3.1 -7.64,3.1 -4.56,0 -8.07,-2.13 -10.54,-6.38 -2.47,-4.25 -3.71,-8.75 -3.71,-13.5"
         style="fill:#000000;fill-opacity:1;fill-rule:nonzero;stroke:none"
         id="path288" />
      <path
         d="m 1290.29,2522.81 v 4.22 c 2.75,0 5,0.22 6.75,0.66 1.75,0.43 2.63,1.49 2.63,3.18 v 32.72 c 0,2.12 -0.31,3.67 -0.94,4.64 -0.62,0.97 -1.55,1.56 -2.77,1.78 -1.21,0.22 -3.1,0.33 -5.67,0.33 v 4.22 l 17.44,1.31 v -11.71 c 1.56,3.43 3.92,6.24 7.07,8.43 3.16,2.19 6.59,3.28 10.27,3.28 5.56,0 9.75,-1.33 12.56,-3.98 2.82,-2.66 4.22,-6.73 4.22,-12.23 v -28.79 c 0,-1.69 0.88,-2.75 2.63,-3.18 1.75,-0.44 4,-0.66 6.75,-0.66 v -4.22 h -27.56 v 4.22 c 2.75,0 5,0.22 6.75,0.66 1.75,0.43 2.62,1.49 2.62,3.18 v 28.41 c 0,3.93 -0.56,7.17 -1.69,9.7 -1.12,2.53 -3.43,3.8 -6.93,3.8 -4.63,0 -8.44,-1.86 -11.44,-5.58 -3,-3.72 -4.5,-7.95 -4.5,-12.7 v -23.63 c 0,-1.69 0.88,-2.75 2.62,-3.18 1.76,-0.44 3.97,-0.66 6.66,-0.66 v -4.22 h -27.47"
         style="fill:#000000;fill-opacity:1;fill-rule:nonzero;stroke:none"
         id="path290" />
      <path
         d="m 1357.43,2522.44 v 19.59 c 0,0.62 0.34,0.93 1.03,0.93 h 1.4 c 0.5,0 0.82,-0.31 0.94,-0.93 2.25,-11.63 7.66,-17.44 16.22,-17.44 3.82,0 6.99,0.86 9.52,2.58 2.53,1.72 3.79,4.39 3.79,8.02 0,2.56 -0.98,4.74 -2.95,6.56 -1.97,1.8 -4.33,3.05 -7.08,3.75 l -8.06,1.59 c -2.69,0.57 -5.12,1.45 -7.31,2.67 -2.19,1.22 -3.99,2.83 -5.39,4.83 -1.41,2 -2.11,4.34 -2.11,7.03 0,3.5 0.92,6.38 2.77,8.63 1.84,2.25 4.25,3.87 7.21,4.87 2.97,1 6.17,1.5 9.61,1.5 4.12,0 7.69,-1.09 10.69,-3.28 l 3.47,3 c 0,0.19 0.19,0.28 0.56,0.28 h 0.94 c 0.25,0 0.46,-0.11 0.65,-0.33 0.19,-0.22 0.28,-0.45 0.28,-0.7 v -15.65 c 0,-0.76 -0.31,-1.13 -0.93,-1.13 h -1.5 c -0.69,0 -1.04,0.37 -1.04,1.13 0,4.18 -1.15,7.54 -3.46,10.07 -2.31,2.53 -5.56,3.8 -9.75,3.8 -3.63,0 -6.75,-0.67 -9.38,-2.02 -2.62,-1.34 -3.94,-3.64 -3.94,-6.88 0,-2.2 0.94,-4.01 2.82,-5.45 1.87,-1.43 4.09,-2.46 6.65,-3.09 l 8.16,-1.5 c 2.75,-0.62 5.3,-1.68 7.64,-3.18 2.34,-1.5 4.22,-3.38 5.63,-5.63 1.4,-2.25 2.1,-4.81 2.1,-7.69 0,-2.87 -0.5,-5.37 -1.5,-7.5 -1,-2.12 -2.39,-3.89 -4.16,-5.3 -1.79,-1.4 -3.9,-2.44 -6.34,-3.09 -2.43,-0.66 -4.97,-0.98 -7.59,-0.98 -5,0 -9.28,1.65 -12.84,4.96 l -4.41,-4.68 c 0,-0.19 -0.22,-0.28 -0.66,-0.28 h -0.65 c -0.69,0 -1.03,0.31 -1.03,0.94"
         style="fill:#000000;fill-opacity:1;fill-rule:nonzero;stroke:none"
         id="path292" />
      <path
         d="m 1405.51,2534.62 c 0,4.75 1.88,8.63 5.62,11.63 3.76,3 8.26,5.11 13.5,6.32 5.26,1.22 10.26,1.84 15,1.84 v 4.87 c 0,2.31 -0.5,4.56 -1.5,6.75 -1,2.18 -2.46,3.97 -4.4,5.34 -1.94,1.38 -4.07,2.07 -6.38,2.07 -5.31,0 -9.34,-1.19 -12.09,-3.57 1.5,0 2.75,-0.58 3.75,-1.73 1,-1.16 1.5,-2.48 1.5,-3.98 0,-1.63 -0.56,-3.01 -1.69,-4.13 -1.12,-1.13 -2.46,-1.69 -4.03,-1.69 -1.62,0 -3,0.56 -4.12,1.69 -1.13,1.12 -1.69,2.5 -1.69,4.13 0,4.18 1.92,7.3 5.77,9.37 3.84,2.06 8.04,3.09 12.6,3.09 3.26,0 6.52,-0.7 9.8,-2.11 3.28,-1.4 5.97,-3.39 8.06,-5.95 2.09,-2.56 3.14,-5.56 3.14,-9 v -27 c 0,-1.56 0.33,-3.01 0.99,-4.31 0.65,-1.32 1.7,-1.97 3.14,-1.97 1.31,0 2.3,0.65 2.95,1.97 0.66,1.3 0.99,2.75 0.99,4.31 v 7.69 h 3.46 v -7.69 c 0,-1.81 -0.46,-3.53 -1.4,-5.15 -0.94,-1.63 -2.19,-2.93 -3.75,-3.9 -1.56,-0.97 -3.28,-1.45 -5.16,-1.45 -2.31,0 -4.32,0.92 -6.04,2.76 -1.72,1.85 -2.67,4.02 -2.86,6.52 -1.44,-3 -3.61,-5.39 -6.52,-7.17 -2.9,-1.78 -5.98,-2.67 -9.23,-2.67 -3.07,0 -6.08,0.43 -9.05,1.31 -2.97,0.87 -5.44,2.28 -7.41,4.22 -1.96,1.93 -2.95,4.47 -2.95,7.59 z m 9.75,0 c 0,-2.81 1.03,-5.19 3.09,-7.12 2.07,-1.94 4.51,-2.91 7.32,-2.91 2.62,0 4.98,0.66 7.08,1.97 2.09,1.31 3.76,3.08 5.01,5.3 1.25,2.22 1.87,4.55 1.87,6.98 v 12.47 c -3.62,0 -7.34,-0.6 -11.15,-1.78 -3.81,-1.19 -6.97,-3.05 -9.47,-5.58 -2.5,-2.53 -3.75,-5.64 -3.75,-9.33"
         style="fill:#000000;fill-opacity:1;fill-rule:nonzero;stroke:none"
         id="path294" />
      <path
         d="m 1473.01,2537.25 v 33.09 h -10.03 v 3.1 c 5.25,0 9.11,2.43 11.58,7.31 2.47,4.87 3.7,10.18 3.7,15.94 h 3.47 v -22.13 h 16.87 v -4.22 h -16.87 v -32.9 c 0,-3.32 0.55,-6.23 1.64,-8.73 1.09,-2.5 3.11,-3.75 6.05,-3.75 2.69,0 4.64,1.33 5.86,3.99 1.22,2.66 1.82,5.49 1.82,8.49 v 7.12 h 3.47 v -7.31 c 0,-2.5 -0.45,-4.97 -1.36,-7.41 -0.91,-2.43 -2.26,-4.43 -4.08,-6 -1.81,-1.56 -4,-2.34 -6.56,-2.34 -4.81,0 -8.61,1.43 -11.39,4.31 -2.78,2.87 -4.17,6.69 -4.17,11.44"
         style="fill:#000000;fill-opacity:1;fill-rule:nonzero;stroke:none"
         id="path296" />
      <path
         d="m 1511.05,2522.81 v 4.22 c 2.75,0 5,0.22 6.75,0.66 1.75,0.43 2.63,1.49 2.63,3.18 v 32.72 c 0,3.07 -0.59,4.95 -1.78,5.67 -1.19,0.72 -3.53,1.08 -7.03,1.08 v 4.22 l 17.25,1.31 v -45 c 0,-1.69 0.76,-2.75 2.29,-3.18 1.53,-0.44 3.58,-0.66 6.14,-0.66 v -4.22 z m 5.16,73.69 c 0,1.75 0.65,3.28 1.97,4.59 1.31,1.31 2.84,1.97 4.59,1.97 1.12,0 2.22,-0.28 3.28,-0.85 1.07,-0.56 1.88,-1.37 2.44,-2.43 0.56,-1.07 0.85,-2.16 0.85,-3.28 0,-1.75 -0.66,-3.29 -1.97,-4.59 -1.32,-1.32 -2.85,-1.97 -4.6,-1.97 -1.75,0 -3.28,0.65 -4.59,1.97 -1.32,1.3 -1.97,2.84 -1.97,4.59"
         style="fill:#000000;fill-opacity:1;fill-rule:nonzero;stroke:none"
         id="path298" />
      <path
         d="m 1570.73,2521.5 c -4.81,0 -9.27,1.21 -13.36,3.66 -4.09,2.43 -7.33,5.7 -9.71,9.79 -2.37,4.09 -3.55,8.58 -3.55,13.46 0,3.62 0.65,7.13 1.96,10.54 1.32,3.41 3.19,6.45 5.63,9.14 2.44,2.69 5.26,4.78 8.48,6.28 3.22,1.5 6.74,2.25 10.55,2.25 4.94,0 9.42,-1.3 13.45,-3.89 4.03,-2.59 7.22,-6.08 9.57,-10.45 2.34,-4.38 3.51,-9 3.51,-13.87 0,-4.82 -1.19,-9.29 -3.56,-13.41 -2.38,-4.13 -5.61,-7.41 -9.7,-9.84 -4.1,-2.45 -8.52,-3.66 -13.27,-3.66 z m 0,3.46 c 6.44,0 10.72,2.33 12.84,6.99 2.13,4.66 3.19,10.58 3.19,17.76 0,4 -0.2,7.33 -0.6,9.99 -0.41,2.66 -1.37,5.05 -2.87,7.17 -0.87,1.31 -2,2.47 -3.38,3.47 -1.37,1 -2.84,1.77 -4.4,2.3 -1.56,0.53 -3.16,0.8 -4.78,0.8 -2.5,0 -4.87,-0.57 -7.12,-1.69 -2.25,-1.13 -4.13,-2.75 -5.63,-4.88 -1.44,-2.25 -2.36,-4.73 -2.77,-7.45 -0.4,-2.72 -0.6,-5.96 -0.6,-9.71 0,-4.5 0.39,-8.53 1.17,-12.09 0.77,-3.56 2.34,-6.56 4.68,-9 2.34,-2.44 5.77,-3.66 10.27,-3.66"
         style="fill:#000000;fill-opacity:1;fill-rule:nonzero;stroke:none"
         id="path300" />
      <path
         d="m 1604.29,2522.81 v 4.22 c 2.75,0 5,0.22 6.75,0.66 1.75,0.43 2.63,1.49 2.63,3.18 v 32.72 c 0,2.12 -0.31,3.67 -0.94,4.64 -0.62,0.97 -1.55,1.56 -2.77,1.78 -1.21,0.22 -3.1,0.33 -5.67,0.33 v 4.22 l 17.44,1.31 v -11.71 c 1.56,3.43 3.92,6.24 7.08,8.43 3.15,2.19 6.58,3.28 10.26,3.28 5.57,0 9.76,-1.33 12.57,-3.98 2.81,-2.66 4.22,-6.73 4.22,-12.23 v -28.79 c 0,-1.69 0.87,-2.75 2.62,-3.18 1.75,-0.44 4,-0.66 6.75,-0.66 v -4.22 h -27.56 v 4.22 c 2.75,0 5,0.22 6.75,0.66 1.75,0.43 2.62,1.49 2.62,3.18 v 28.41 c 0,3.93 -0.56,7.17 -1.68,9.7 -1.13,2.53 -3.44,3.8 -6.94,3.8 -4.63,0 -8.44,-1.86 -11.44,-5.58 -3,-3.72 -4.5,-7.95 -4.5,-12.7 v -23.63 c 0,-1.69 0.88,-2.75 2.63,-3.18 1.75,-0.44 3.96,-0.66 6.65,-0.66 v -4.22 h -27.47"
         style="fill:#000000;fill-opacity:1;fill-rule:nonzero;stroke:none"
         id="path302" />
      <path
         d="m 1677.52,2529.46 c 0,1.75 0.66,3.29 1.97,4.6 1.31,1.31 2.85,1.97 4.6,1.97 1.12,0 2.2,-0.3 3.23,-0.89 1.03,-0.6 1.84,-1.43 2.44,-2.48 0.59,-1.07 0.88,-2.13 0.88,-3.2 0,-1.75 -0.64,-3.29 -1.92,-4.64 -1.27,-1.34 -2.82,-2.01 -4.63,-2.01 -1.75,0 -3.29,0.67 -4.6,2.01 -1.31,1.35 -1.97,2.89 -1.97,4.64 z m 0,38.45 c 0,1.12 0.28,2.2 0.85,3.23 0.56,1.03 1.35,1.86 2.39,2.48 1.03,0.63 2.14,0.94 3.33,0.94 1.12,0 2.2,-0.31 3.23,-0.94 1.03,-0.62 1.84,-1.45 2.44,-2.48 0.59,-1.03 0.88,-2.11 0.88,-3.23 0,-1.76 -0.62,-3.29 -1.87,-4.6 -1.25,-1.31 -2.81,-1.97 -4.68,-1.97 -1.82,0 -3.36,0.66 -4.65,1.97 -1.28,1.31 -1.92,2.84 -1.92,4.6"
         style="fill:#000000;fill-opacity:1;fill-rule:nonzero;stroke:none"
         id="path304" />
      <path
         d="m 1755.56,2522.81 v 4.22 c 3,0 5.87,0.59 8.58,1.78 2.72,1.19 5.02,2.97 6.89,5.35 l 10.88,13.87 -14.16,18.47 c -1.44,1.75 -2.98,2.82 -4.64,3.23 -1.65,0.41 -3.98,0.61 -6.98,0.61 v 4.22 h 24.93 v -4.22 c -1.06,0 -2.04,-0.23 -2.95,-0.7 -0.91,-0.47 -1.36,-1.14 -1.36,-2.02 0,-0.31 0.13,-0.69 0.38,-1.12 l 9.56,-12.47 7.22,9.18 c 1,1.19 1.5,2.38 1.5,3.57 0,0.93 -0.33,1.76 -0.99,2.48 -0.65,0.72 -1.51,1.08 -2.57,1.08 v 4.22 h 22.12 v -4.22 c -3.13,0 -6.03,-0.59 -8.72,-1.78 -2.69,-1.19 -4.97,-2.97 -6.84,-5.35 l -9.56,-12.09 15.37,-20.25 c 1.5,-1.75 3.08,-2.83 4.73,-3.23 1.66,-0.41 4.02,-0.61 7.08,-0.61 v -4.22 H 1791 v 4.22 c 1,0 1.95,0.23 2.86,0.7 0.91,0.47 1.36,1.14 1.36,2.02 0,0.37 -0.13,0.75 -0.37,1.12 l -10.79,14.25 -8.62,-10.96 c -0.88,-1.07 -1.31,-2.26 -1.31,-3.57 0,-0.93 0.33,-1.76 0.98,-2.48 0.66,-0.72 1.43,-1.08 2.3,-1.08 v -4.22 h -21.85"
         style="fill:#000000;fill-opacity:1;fill-rule:nonzero;stroke:none"
         id="path306" />
      <path
         d="m 594.02,2497.23 h 300.195 v 108.758 H 594.02 Z"
         style="fill:#d95319;fill-opacity:1;fill-rule:nonzero;stroke:none"
         id="path308" />
      <path
         d="m 594.02,2497.23 h 300.195 v 108.758 H 594.02 Z"
         style="fill:none;stroke:#000000;stroke-width:4.998;stroke-linecap:butt;stroke-linejoin:miter;stroke-miterlimit:10;stroke-dasharray:none;stroke-opacity:1"
         id="path310" />
      <path
         d="m 564,2464 h 1284 v 324 H 564 Z"
         style="fill:none;stroke:#262626;stroke-width:4.998;stroke-linecap:butt;stroke-linejoin:miter;stroke-miterlimit:10;stroke-dasharray:none;stroke-opacity:1"
         id="path312" />
    </g>
  </g>
</svg>
